<svg width="545" height="316" viewBox="0 0 545 316" fill="none" xmlns="http://www.w3.org/2000/svg">
<path d="M257.984 312.549H0V313.455H257.984V312.549Z" fill="#3F3D56"/>
<path d="M65.5798 309.39H72.9146L76.4046 286.528H65.5786L65.5798 309.39Z" fill="#FFB8B8"/>
<path d="M87.0615 314.893L64.0079 314.894L64.0075 307.697L78.1541 307.696C80.5164 307.696 82.7819 308.454 84.4524 309.804C86.1229 311.154 87.0614 312.984 87.0615 314.893L87.0615 314.893Z" fill="#2F2E41"/>
<path d="M26.5527 308.25L33.8241 309.034L41.023 286.745L30.2922 285.589L26.5527 308.25Z" fill="#FFB8B8"/>
<path d="M46.946 316L24.0947 313.538L25.2718 306.404L39.2943 307.915C41.6358 308.167 43.7575 309.161 45.1925 310.677C46.6275 312.193 47.2582 314.108 46.946 316Z" fill="#2F2E41"/>
<path d="M36.9736 214.968L78.2575 216.419L76.4626 301.025L65.6929 300.058L57.3164 242.526L37.572 303.926L26.8022 302.475L36.9736 214.968Z" fill="#2F2E41"/>
<path d="M64.4965 164.688L50.1369 162.317L41.1621 215.451C41.1621 215.451 67.4881 229.472 75.8645 214.968L64.4965 164.688Z" fill="#AF7BBC"/>
<path d="M58.2329 158.447C66.3489 158.447 72.9282 153.131 72.9282 146.573C72.9282 140.015 66.3489 134.698 58.2329 134.698C50.1169 134.698 43.5376 140.015 43.5376 146.573C43.5376 153.131 50.1169 158.447 58.2329 158.447Z" fill="#FFB8B8"/>
<path d="M50.1369 161.787L29.1957 167.105C29.1957 167.105 39.3671 208.199 22.6143 229.472C22.6143 229.472 43.5554 247.36 52.5301 207.232C52.5301 207.232 59.7099 174.84 50.1369 161.787Z" fill="#2F2E41"/>
<path d="M64.4963 164.688L80.0526 172.423C80.0526 172.423 88.429 228.988 80.0526 234.307C71.6761 239.625 64.4963 164.688 64.4963 164.688Z" fill="#2F2E41"/>
<path d="M86.5202 242.51C85.8827 242.02 85.3857 241.423 85.0643 240.762C84.743 240.1 84.6051 239.39 84.6603 238.68C84.7155 237.971 84.9626 237.28 85.384 236.656C85.8054 236.032 86.391 235.491 87.0995 235.07L80.7749 218.566L91.4445 221.07L95.8147 236.358C96.6114 237.367 96.9226 238.577 96.6893 239.758C96.456 240.94 95.6943 242.012 94.5487 242.77C93.403 243.528 91.9529 243.92 90.4732 243.872C88.9935 243.824 87.587 243.339 86.5202 242.51Z" fill="#FFB8B8"/>
<path d="M32.7769 237.737C32.067 237.317 31.4796 236.777 31.0561 236.154C30.6326 235.531 30.3832 234.84 30.3256 234.131C30.268 233.422 30.4036 232.711 30.7227 232.049C31.0418 231.387 31.5368 230.789 32.1727 230.298L23.2856 214.585L34.2642 215.965L41.0204 230.675C41.9704 231.593 42.4707 232.76 42.4265 233.956C42.3823 235.152 41.7966 236.294 40.7805 237.164C39.7644 238.035 38.3884 238.574 36.9133 238.679C35.4382 238.785 33.9664 238.449 32.7769 237.737H32.7769Z" fill="#FFB8B8"/>
<path d="M34.5802 167.589L29.1954 167.105L15.4341 203.365L29.1954 228.505L39.9651 223.187L27.9987 202.398L37.5718 180.159L34.5802 167.589Z" fill="#2F2E41"/>
<path d="M77.0609 171.94L80.0524 172.423L94.4121 228.989L84.839 231.406L73.4709 198.047L77.0609 171.94Z" fill="#2F2E41"/>
<path d="M48.135 151.449C48.3331 150.282 48.9029 149.177 49.7885 148.241C50.6742 147.306 51.8454 146.572 53.1873 146.113C56.016 145.176 59.2068 145.571 62.256 145.751C65.3051 145.93 68.6998 145.774 70.9002 144.059C72.9104 142.493 73.3624 139.893 72.3917 137.776C71.421 135.66 69.223 134.018 66.726 133.007C64.1814 132.064 61.4551 131.481 58.6663 131.285C54.5911 130.888 50.4064 130.837 46.4346 131.674C42.4628 132.512 43.4869 134.306 41.1594 137.038C38.8318 139.77 38.1346 143.492 39.9091 146.483C41.0965 148.485 43.2243 149.999 45.2964 151.456" fill="#2F2E41"/>
<path d="M376.843 282.492L376.843 281.585C379.073 281.585 381.337 281.548 383.572 281.476L383.617 282.381C381.367 282.454 379.088 282.491 376.843 282.492ZM370.071 282.387C367.829 282.316 365.554 282.208 363.309 282.065L363.397 281.161C365.627 281.303 367.887 281.411 370.115 281.481L370.071 282.387ZM390.379 282.053L390.29 281.149C392.515 281.005 394.768 280.822 396.985 280.606L397.119 281.506C394.888 281.724 392.62 281.907 390.379 282.053ZM356.568 281.524C354.331 281.308 352.074 281.052 349.859 280.765L350.037 279.87C352.237 280.156 354.48 280.409 356.701 280.624L356.568 281.524ZM403.827 280.741L403.648 279.846C405.847 279.559 408.074 279.23 410.267 278.87L410.491 279.757C408.283 280.121 406.041 280.451 403.827 280.741H403.827ZM343.194 279.788C340.986 279.427 338.762 279.025 336.582 278.594L336.849 277.713C339.014 278.142 341.224 278.541 343.416 278.899L343.194 279.788ZM417.101 278.557L416.832 277.677C419.004 277.245 421.191 276.772 423.333 276.271L423.645 277.142C421.489 277.646 419.287 278.122 417.101 278.557ZM330.036 277.184C327.873 276.679 325.696 276.133 323.566 275.56L323.92 274.7C326.036 275.269 328.199 275.812 330.347 276.313L330.036 277.184ZM430.112 275.512L429.756 274.652C431.874 274.08 434.006 273.466 436.094 272.824L436.493 273.671C434.39 274.317 432.244 274.936 430.112 275.512ZM317.166 273.721C315.061 273.076 312.942 272.388 310.865 271.673L311.305 270.839C313.367 271.549 315.473 272.233 317.563 272.873L317.166 273.721ZM442.759 271.63L442.318 270.797C444.369 270.089 446.428 269.339 448.437 268.567L448.919 269.385C446.896 270.162 444.823 270.918 442.759 271.63ZM304.675 269.421C302.637 268.64 300.595 267.815 298.604 266.969L299.126 266.167C301.103 267.007 303.132 267.826 305.156 268.602L304.675 269.421ZM454.965 266.94L454.442 266.138C456.418 265.298 458.397 264.415 460.324 263.515L460.886 264.299C458.946 265.206 456.954 266.094 454.965 266.94H454.965ZM292.662 264.321C290.708 263.408 288.755 262.453 286.86 261.483L287.46 260.717C289.343 261.681 291.282 262.63 293.224 263.537L292.662 264.321ZM466.672 261.467L466.072 260.701C467.952 259.738 469.837 258.73 471.676 257.703L472.314 258.448C470.463 259.482 468.565 260.498 466.672 261.467H466.672ZM281.204 258.459C279.35 257.423 277.5 256.345 275.705 255.254L276.38 254.53C278.162 255.613 280 256.684 281.842 257.713L281.204 258.459ZM477.803 255.248L477.128 254.524C478.907 253.444 480.687 252.315 482.421 251.171L483.13 251.873C481.385 253.025 479.593 254.16 477.803 255.248ZM270.371 251.874C268.63 250.724 266.893 249.53 265.21 248.324L265.954 247.646C267.626 248.844 269.351 250.03 271.081 251.172L270.371 251.874ZM488.287 248.327L487.544 247.649C489.215 246.452 490.879 245.212 492.489 243.962L493.265 244.616C491.645 245.874 489.97 247.122 488.288 248.327H488.287ZM260.229 244.612C258.612 243.356 256.999 242.054 255.438 240.743L256.247 240.114C257.798 241.418 259.399 242.711 261.007 243.958L260.229 244.612ZM498.057 240.746L497.249 240.118C498.795 238.818 500.331 237.474 501.815 236.122L502.654 236.724C501.16 238.085 499.614 239.438 498.057 240.746V240.746ZM250.843 236.722C249.348 235.36 247.87 233.959 246.451 232.557L247.32 231.983C248.729 233.376 250.197 234.768 251.682 236.121L250.843 236.722ZM507.05 232.556L506.181 231.982C507.598 230.582 508.997 229.142 510.339 227.702L511.235 228.248C509.884 229.697 508.476 231.146 507.05 232.556V232.556ZM242.271 228.254C240.919 226.804 239.586 225.313 238.308 223.821L239.23 223.305C240.5 224.787 241.824 226.268 243.167 227.709L242.271 228.254ZM515.204 223.806L514.282 223.29C515.556 221.802 516.808 220.275 518.002 218.752L518.95 219.238C517.747 220.77 516.487 222.307 515.204 223.806V223.806ZM234.569 219.263C233.367 217.732 232.187 216.16 231.061 214.589L232.032 214.135C233.15 215.695 234.323 217.257 235.516 218.778L234.569 219.263ZM522.467 214.55L521.496 214.096C522.619 212.528 523.715 210.924 524.754 209.329L525.746 209.751C524.701 211.357 523.597 212.972 522.467 214.55H522.467ZM227.79 209.806C226.745 208.202 225.726 206.559 224.76 204.922L225.773 204.532C226.732 206.159 227.744 207.791 228.782 209.384L227.79 209.806ZM528.784 204.847L527.771 204.457C528.731 202.825 529.664 201.154 530.542 199.49L531.574 199.846C530.69 201.521 529.751 203.204 528.784 204.847ZM221.978 199.946C221.095 198.276 220.244 196.573 219.448 194.884L220.497 194.561C221.287 196.239 222.132 197.931 223.01 199.589L221.978 199.946ZM534.112 194.756L533.063 194.434C533.858 192.739 534.621 191.011 535.328 189.299L536.392 189.585C535.68 191.31 534.913 193.049 534.112 194.756ZM217.168 189.729C216.454 188.006 215.774 186.248 215.148 184.503L216.225 184.251C216.847 185.983 217.522 187.73 218.231 189.441L217.168 189.729ZM538.405 184.357L537.327 184.106C537.946 182.377 538.53 180.609 539.064 178.853L540.153 179.069C539.616 180.837 539.028 182.617 538.405 184.357V184.357ZM213.392 179.216C212.853 177.451 212.352 175.655 211.902 173.876L213.002 173.695C213.448 175.462 213.946 177.246 214.481 178.999L213.392 179.216ZM541.635 173.728L540.535 173.548C540.979 171.782 541.384 169.982 541.74 168.198L542.848 168.343C542.49 170.139 542.082 171.95 541.635 173.728V173.728ZM210.682 168.492C210.322 166.703 210.002 164.879 209.731 163.072L210.845 162.963C211.114 164.758 211.432 166.569 211.789 168.347L210.682 168.492ZM543.791 162.921L542.677 162.813C542.944 161.019 543.169 159.199 543.345 157.403L544.463 157.475C544.285 159.282 544.059 161.115 543.791 162.921V162.921ZM209.051 157.627C208.87 155.816 208.732 153.978 208.641 152.162L209.762 152.126C209.852 153.929 209.99 155.755 210.169 157.554L209.051 157.627ZM544.866 152.011L543.746 151.975C543.834 150.169 543.878 148.34 543.878 146.539L543.878 146.239H545L545 146.537C545 148.352 544.955 150.193 544.867 152.011H544.866ZM209.621 146.689H208.5L208.5 146.537C208.5 144.769 208.542 142.978 208.626 141.217L209.747 141.252C209.664 143.002 209.621 144.78 209.621 146.539L209.621 146.689ZM543.73 140.803C543.637 139.004 543.498 137.177 543.315 135.376L544.434 135.302C544.617 137.116 544.758 138.954 544.851 140.766L543.73 140.803ZM210.14 135.824L209.022 135.753C209.198 133.938 209.422 132.106 209.687 130.306L210.801 130.413C210.537 132.201 210.315 134.021 210.14 135.824ZM542.633 129.966C542.362 128.179 542.043 126.368 541.681 124.584L542.789 124.438C543.152 126.234 543.474 128.057 543.746 129.857L542.633 129.966ZM211.73 125.028L210.622 124.884C210.978 123.09 211.383 121.277 211.828 119.498L212.928 119.677C212.486 121.445 212.083 123.245 211.73 125.028ZM540.461 119.237C540.011 117.466 539.511 115.682 538.974 113.934L540.063 113.716C540.603 115.475 541.107 117.271 541.56 119.054L540.461 119.237ZM214.392 114.37L213.302 114.155C213.836 112.391 214.422 110.611 215.044 108.864L216.122 109.115C215.504 110.85 214.922 112.618 214.392 114.37H214.392ZM537.224 108.684C536.599 106.953 535.922 105.207 535.21 103.495L536.274 103.207C536.99 104.93 537.672 106.687 538.3 108.43L537.224 108.684ZM218.114 103.921L217.049 103.635C217.759 101.91 218.524 100.169 219.322 98.4628L220.371 98.7833C219.578 100.478 218.819 102.207 218.114 103.921ZM532.937 98.3772C532.14 96.6913 531.293 95.0005 530.417 93.3515L531.448 92.9944C532.329 94.6544 533.183 96.3565 533.986 98.0537L532.937 98.3772ZM222.885 93.7251L221.852 93.3701C222.734 91.6957 223.671 90.0122 224.636 88.367L225.649 88.7551C224.69 90.3895 223.76 92.0617 222.885 93.7251ZM527.647 88.4104C526.687 86.7858 525.673 85.1545 524.632 83.562L525.624 83.1387C526.672 84.7421 527.693 86.3842 528.659 88.0201L527.647 88.4104ZM228.661 83.8811L227.667 83.4602C228.713 81.85 229.814 80.2342 230.94 78.6576L231.912 79.1107C230.793 80.6767 229.699 82.2819 228.661 83.8811L228.661 83.8811ZM521.376 78.8142C520.254 77.254 519.08 75.6931 517.885 74.1745L518.831 73.6881C520.034 75.2169 521.216 76.7884 522.346 78.3589L521.376 78.8142ZM235.398 74.4518L234.45 73.9672C235.653 72.4299 236.912 70.8918 238.19 69.3958L239.113 69.9107C237.843 71.3968 236.594 72.9245 235.398 74.4517V74.4518ZM514.164 69.6505C512.892 68.169 511.565 66.6882 510.222 65.2499L511.117 64.7038C512.47 66.1518 513.805 67.6424 515.085 69.134L514.164 69.6505ZM243.049 65.4949L242.153 64.9505C243.505 63.4967 244.911 62.046 246.332 60.6383L247.201 61.2114C245.789 62.6096 244.392 64.0508 243.049 65.4949L243.049 65.4949ZM506.063 60.9792C504.649 59.5845 503.179 58.1938 501.695 56.8458L502.533 56.2435C504.027 57.6005 505.506 59.0006 506.931 60.4048L506.063 60.9792ZM251.562 57.0664L250.722 56.4659C252.211 55.1063 253.756 53.7517 255.314 52.4395L256.123 53.067C254.576 54.3703 253.041 55.7161 251.562 57.0664V57.0664ZM497.126 52.8555C495.573 51.5541 493.97 50.2623 492.36 49.0156L493.136 48.3611C494.757 49.6162 496.371 50.9166 497.933 52.2266L497.126 52.8555ZM260.878 49.2188L260.1 48.5656C261.719 47.3071 263.392 46.0574 265.073 44.8505L265.818 45.5281C264.148 46.7269 262.486 47.9688 260.878 49.2188L260.878 49.2188ZM487.408 45.332C485.733 44.1347 484.006 42.95 482.277 41.8111L482.985 41.1085C484.726 42.2552 486.464 43.4476 488.151 44.6532L487.408 45.332ZM270.936 42.0009L270.226 41.2999C271.966 40.1481 273.757 39.011 275.548 37.9197L276.224 38.6432C274.444 39.7273 272.665 40.8571 270.936 42.0009L270.936 42.0009ZM476.972 38.4585C475.183 37.3733 473.343 36.3039 471.506 35.2798L472.142 34.5337C473.992 35.5646 475.844 36.6411 477.646 37.7336L476.972 38.4585ZM281.673 35.4593L281.033 34.7144C282.882 33.6791 284.779 32.6619 286.672 31.6909L287.273 32.4561C285.393 33.4204 283.509 34.4307 281.673 35.4592V35.4593ZM465.884 32.2804C463.993 31.3152 462.052 30.3683 460.115 29.4662L460.676 28.6811C462.625 29.5892 464.579 30.5425 466.483 31.5141L465.884 32.2804ZM293.017 29.6381L292.454 28.8539C294.393 27.9451 296.384 27.0547 298.37 26.2079L298.894 27.0093C296.92 27.8506 294.943 28.7351 293.017 29.6381V29.6381ZM454.211 26.8414C452.23 26.0027 450.2 25.1851 448.177 24.4113L448.657 23.5921C450.694 24.371 452.738 25.1942 454.731 26.0386L454.211 26.8414ZM304.896 24.5755L304.413 23.7572C306.435 22.9781 308.507 22.2209 310.571 21.5066L311.012 22.3397C308.962 23.0491 306.905 23.8012 304.896 24.5754V24.5755ZM442.025 22.1801C439.964 21.4727 437.857 20.7905 435.764 20.1519L436.161 19.304C438.268 19.9468 440.389 20.6338 442.463 21.3459L442.025 22.1801ZM317.233 20.3061L316.834 19.4591C318.932 18.8125 321.078 18.1916 323.211 17.6134L323.568 18.4729C321.449 19.047 319.318 19.664 317.233 20.3061V20.3061ZM429.404 18.3303C427.284 17.7623 425.121 17.2218 422.975 16.7236L423.285 15.8527C425.446 16.3541 427.623 16.8982 429.756 17.47L429.404 18.3303ZM329.99 16.8482L329.677 15.9782C331.834 15.471 334.035 14.9926 336.219 14.556L336.489 15.4358C334.319 15.8695 332.133 16.3448 329.99 16.8482V16.8482ZM416.471 15.3291C414.305 14.9023 412.095 14.5051 409.902 14.1486L410.123 13.26C412.331 13.6189 414.556 14.019 416.737 14.4485L416.471 15.3291ZM343.052 14.238L342.827 13.3502C345.026 12.9864 347.268 12.6537 349.49 12.3609L349.671 13.2553C347.463 13.5463 345.236 13.8769 343.052 14.238ZM403.28 13.1838C401.074 12.8997 398.832 12.6479 396.615 12.4359L396.747 11.5357C398.978 11.7493 401.236 12.0026 403.456 12.289L403.28 13.1838ZM356.332 12.4892L356.196 11.5895C358.428 11.37 360.695 11.1839 362.936 11.037L363.027 11.9402C360.801 12.0865 358.548 12.2711 356.332 12.4892H356.332ZM389.918 11.9048C387.694 11.7648 385.434 11.659 383.2 11.5906L383.243 10.6847C385.492 10.7538 387.767 10.8602 390.005 11.0011L389.918 11.9048ZM369.744 11.6081L369.698 10.7026C371.94 10.6279 374.219 10.5885 376.47 10.5854L376.472 11.4917C374.236 11.4948 371.972 11.534 369.744 11.6081H369.744Z" fill="#CCCCCC"/>
<path d="M317.338 231.384C377.117 231.384 425.579 192.225 425.579 143.921C425.579 95.616 377.117 56.4574 317.338 56.4574C257.558 56.4574 209.097 95.616 209.097 143.921C209.097 192.225 257.558 231.384 317.338 231.384Z" fill="#C5B0CF"/>
<path d="M278.921 207.819C310.669 207.819 336.406 179.211 336.406 143.921C336.406 108.631 310.669 80.0226 278.921 80.0226C247.172 80.0226 221.435 108.631 221.435 143.921C221.435 179.211 247.172 207.819 278.921 207.819Z" fill="white"/>
<path d="M259.865 177.851C268.725 177.851 275.908 168.72 275.908 157.458C275.908 146.195 268.725 137.065 259.865 137.065C251.004 137.065 243.821 146.195 243.821 157.458C243.821 168.72 251.004 177.851 259.865 177.851Z" fill="#3F3D56"/>
<path d="M530 103.686C535.885 103.686 540.655 99.8312 540.655 95.0758C540.655 90.3204 535.885 86.4654 530 86.4654C524.115 86.4654 519.344 90.3204 519.344 95.0758C519.344 99.8312 524.115 103.686 530 103.686Z" fill="#C5B0CF"/>
<path d="M406.911 25.3779C415.584 25.3779 422.614 19.6969 422.614 12.689C422.614 5.68105 415.584 0 406.911 0C398.238 0 391.208 5.68105 391.208 12.689C391.208 19.6969 398.238 25.3779 406.911 25.3779Z" fill="#C5B0CF"/>
<path d="M396.507 289.674C402.392 289.674 407.163 285.819 407.163 281.063C407.163 276.308 402.392 272.453 396.507 272.453C390.622 272.453 385.852 276.308 385.852 281.063C385.852 285.819 390.622 289.674 396.507 289.674Z" fill="#C5B0CF"/>
</svg>
