<svg width="468" height="394" viewBox="0 0 468 394" fill="none" xmlns="http://www.w3.org/2000/svg">
<path d="M218.924 311.896L226.318 308.105L217.058 272.831L206.145 278.425L218.924 311.896Z" fill="#FFB6B6"/>
<path d="M213.629 302.319L224.688 293.371L227.741 299.009L243.338 299.888C244.109 299.932 244.847 300.256 245.445 300.814C246.043 301.372 246.47 302.134 246.663 302.99C246.856 303.845 246.805 304.749 246.518 305.569C246.231 306.39 245.723 307.083 245.068 307.549L231.394 317.267L226.018 313.366L228.117 319.597L222.962 323.261L213.629 302.319Z" fill="#171617"/>
<path d="M408.841 245.13C408.841 241.582 407.801 238.703 406.524 238.696H58.4753C57.1928 238.703 56.1588 241.582 56.153 245.13V391.166C56.1531 391.496 56.0461 391.813 55.8529 392.057C55.6598 392.301 55.3942 392.454 55.1081 392.486C54.1739 392.589 53.2398 392.684 52.3056 392.773C52.2825 392.773 52.2594 392.779 52.2363 392.779C51.7279 392.832 51.2196 392.872 50.7112 392.918H50.7054C50.4439 392.364 50.1855 391.806 49.93 391.242C49.8437 391.052 49.7985 390.841 49.7985 390.627V236.784C49.7985 235.804 49.8331 234.818 49.8909 233.845C49.9734 232.509 50.118 231.179 50.3242 229.861C51.3004 223.712 53.5072 219.549 56.0143 219.535H408.979C409.345 219.538 409.707 219.626 410.042 219.794C410.535 220.043 410.98 220.401 411.354 220.846C411.86 221.449 412.294 222.128 412.642 222.865C413.878 225.36 414.762 229.08 415.074 233.408C415.074 233.448 415.08 233.488 415.08 233.527C415.161 234.6 415.201 235.692 415.195 236.784L415.276 250.968L415.328 259.426L415.484 285.967L415.542 295.392L415.796 392.157C415.796 392.508 415.674 392.845 415.458 393.093C415.241 393.341 414.947 393.481 414.641 393.481H409.996C409.69 393.481 409.396 393.341 409.179 393.093C408.962 392.845 408.841 392.508 408.841 392.157V245.13Z" fill="#180D1E"/>
<path d="M314.265 153.166H276.762C276.231 153.167 275.723 153.409 275.348 153.84C274.973 154.27 274.763 154.853 274.764 155.461V223.338H316.268V155.461C316.268 155.16 316.216 154.861 316.116 154.583C316.015 154.304 315.867 154.051 315.681 153.838C315.495 153.625 315.274 153.456 315.031 153.341C314.788 153.225 314.528 153.166 314.265 153.166ZM295.639 191.733C294.467 191.727 293.343 191.19 292.514 190.24C291.685 189.29 291.216 188.003 291.211 186.659V178.83C291.212 177.485 291.679 176.196 292.51 175.246C293.34 174.296 294.466 173.762 295.639 173.762C296.813 173.762 297.939 174.296 298.769 175.246C299.599 176.196 300.066 177.485 300.068 178.83V186.659C300.062 188.003 299.594 189.29 298.765 190.24C297.935 191.19 296.812 191.727 295.639 191.733Z" fill="#171717"/>
<path d="M274.635 221.167V227.716C274.636 228.055 274.754 228.38 274.963 228.62C275.172 228.86 275.456 228.995 275.752 228.996H315.279C315.575 228.994 315.858 228.859 316.068 228.619C316.277 228.379 316.395 228.055 316.396 227.716V221.167H274.635Z" fill="#3F3D56"/>
<path d="M226.451 58.6409C226.019 59.8859 225.354 61.0073 224.504 61.9261C223.653 62.8449 222.636 63.5388 221.526 63.9588C220.416 64.3789 219.239 64.515 218.078 64.3575C216.917 64.2 215.8 63.7527 214.806 63.0472L161.868 105.3L160.407 88.4619L212.457 49.8247C213.602 47.9902 215.295 46.7008 217.214 46.2007C219.134 45.7007 221.147 46.0247 222.872 47.1114C224.597 48.1981 225.914 49.972 226.573 52.097C227.233 54.222 227.189 56.5503 226.451 58.6409Z" fill="#F6C2C2"/>
<path d="M107.926 85.282C107.926 85.282 102.194 94.9861 111.189 103.574C120.184 112.161 156.642 110.453 162.525 110.379C168.409 110.305 195.403 78.3111 195.403 78.3111L195.226 59.8335L162.634 81.9901L107.926 85.282Z" fill="#E58383"/>
<path d="M104.681 149.71L105.258 162.285C105.258 162.285 103.553 173.425 104.956 175.828C106.347 178.22 144.567 181.779 144.567 181.779C144.567 181.779 143.368 163.024 145.53 149.458L104.681 149.71Z" fill="#FFB6B6"/>
<path d="M221.976 277.75L207.264 292.504L178.43 224.94C149.838 230.574 122.863 232.379 99.5311 225.564C91.6314 223.288 86.8026 213.942 88.7457 204.69C88.8365 204.257 88.9415 203.83 89.0607 203.406C91.8531 193.645 99.1626 186.738 104.921 176.002L146.987 176.734L142.288 195.308L183.152 189.25C191.369 188.031 198.874 194.846 199.915 204.471C199.97 204.979 200.005 205.49 200.022 206.002L221.976 277.75Z" fill="#101011"/>
<path d="M121.106 65.0815C130.539 65.0815 138.186 56.3197 138.186 45.5115C138.186 34.7034 130.539 25.9416 121.106 25.9416C111.672 25.9416 104.025 34.7034 104.025 45.5115C104.025 56.3197 111.672 65.0815 121.106 65.0815Z" fill="#F6C2C2"/>
<path d="M111.092 72.1463L126.754 74.2573C127.414 74.3463 128.034 74.6692 128.526 75.1809C129.019 75.6926 129.36 76.3677 129.502 77.1121L131.993 90.1701L147.519 111.119C147.519 111.119 153.094 123.096 151.004 136.67C149.746 144.844 147.569 152.796 144.528 160.33C144.528 160.33 106.345 178.221 104.952 175.826C103.558 173.431 103.105 162.55 103.105 162.55L98.1931 99.9359C97.912 96.6368 98.2715 93.3073 99.2458 90.1862C100.22 87.0651 101.785 84.2296 103.829 81.8832C105.068 80.4865 106.291 79.5088 107.287 79.5088C109.536 79.4219 109.247 73.6228 111.092 72.1463Z" fill="#D2CFC5"/>
<path d="M144.698 338.131L151.966 342.21L169.462 311.316L158.735 305.296L144.698 338.131Z" fill="#FFB6B6"/>
<path d="M162.108 331.149L147.177 324.654L167.669 254.135C139.829 244.783 118.828 229.719 100.493 211.838C94.2723 205.813 89.6074 198.075 94.905 190.745C95.1526 190.402 95.4112 190.071 95.6808 189.751C101.937 182.392 117.813 183.808 127.107 177.069L147.893 202.496L146.59 209.307L185.613 224.463C193.461 227.511 197.584 237.414 194.822 246.581C194.676 247.066 194.513 247.542 194.331 248.011L162.108 331.149Z" fill="#101011"/>
<path d="M144.45 333.209L156.942 339.191L154.395 345.149L162.03 360.756C162.407 361.527 162.559 362.416 162.465 363.293C162.37 364.17 162.033 364.989 161.502 365.631C160.972 366.273 160.277 366.704 159.518 366.861C158.759 367.018 157.976 366.893 157.284 366.505L142.833 358.394L142.863 351.103L139.37 356.45L133.922 353.393L144.45 333.209Z" fill="#171617"/>
<path d="M120.021 225.234C119.042 224.503 118.214 223.535 117.596 222.397C116.979 221.26 116.586 219.981 116.447 218.651C116.307 217.321 116.424 215.972 116.789 214.699C117.153 213.426 117.757 212.261 118.558 211.284L92.8917 143.466L107.587 145.159L130.335 211.265C131.678 212.914 132.446 215.07 132.493 217.325C132.541 219.58 131.865 221.776 130.594 223.498C129.323 225.22 127.544 226.348 125.596 226.668C123.647 226.988 121.664 226.478 120.021 225.234V225.234Z" fill="#F7C2C2"/>
<path d="M120.699 86.8513C120.699 86.8513 113.532 78.4925 104.404 86.8936C95.2762 95.2947 89.5186 136.577 88.4167 143.198C87.3148 149.82 109.341 186.471 109.341 186.471L125.184 189.932L112.682 148.943L120.699 86.8513Z" fill="#E68383"/>
<path d="M376.366 47.2367H216.056C214.679 47.2392 213.358 47.8672 212.384 48.983C211.41 50.0988 210.862 51.6115 210.86 53.1895V177.132C210.861 178.71 211.409 180.223 212.383 181.34C213.357 182.456 214.678 183.083 216.056 183.085H376.366C377.744 183.083 379.064 182.456 380.038 181.34C381.013 180.223 381.56 178.71 381.562 177.132V53.1895C381.56 51.6115 381.011 50.0988 380.037 48.983C379.064 47.8672 377.743 47.2392 376.366 47.2367Z" fill="#232324"/>
<path d="M375.028 51.5364H217.395C216.658 51.5382 215.951 51.8751 215.43 52.4732C214.909 53.0713 214.617 53.8817 214.617 54.7266V175.597C214.618 176.441 214.911 177.25 215.432 177.846C215.953 178.443 216.659 178.779 217.395 178.78H375.028C375.764 178.779 376.47 178.443 376.991 177.846C377.512 177.25 377.805 176.441 377.807 175.597V54.7266C377.807 53.8817 377.514 53.0713 376.993 52.4732C376.472 51.8751 375.765 51.5382 375.028 51.5364Z" fill="white"/>
<path d="M344.324 231.275H250.541C250.284 231.275 250.031 231.209 249.799 231.083C249.567 230.956 249.363 230.772 249.201 230.544C249.039 230.315 248.924 230.048 248.864 229.762C248.804 229.476 248.8 229.179 248.853 228.891L250.308 220.972C250.391 220.529 250.603 220.132 250.91 219.847C251.217 219.561 251.6 219.405 251.996 219.403H342.869C343.264 219.405 343.647 219.561 343.954 219.847C344.261 220.132 344.474 220.529 344.557 220.972L346.012 228.891C346.065 229.179 346.061 229.476 346.001 229.762C345.94 230.048 345.825 230.315 345.663 230.544C345.502 230.772 345.297 230.956 345.066 231.083C344.834 231.209 344.58 231.275 344.324 231.275H344.324Z" fill="white"/>
<path d="M255.268 220.829H252.944C252.788 220.829 252.662 220.974 252.662 221.152V222.491C252.662 222.67 252.788 222.815 252.944 222.815H255.268C255.424 222.815 255.55 222.67 255.55 222.491V221.152C255.55 220.974 255.424 220.829 255.268 220.829Z" fill="#3F3D56"/>
<path d="M261.045 220.829H258.721C258.565 220.829 258.439 220.974 258.439 221.152V222.491C258.439 222.67 258.565 222.815 258.721 222.815H261.045C261.201 222.815 261.327 222.67 261.327 222.491V221.152C261.327 220.974 261.201 220.829 261.045 220.829Z" fill="#3F3D56"/>
<path d="M266.822 220.829H264.497C264.342 220.829 264.215 220.974 264.215 221.152V222.491C264.215 222.67 264.342 222.815 264.497 222.815H266.822C266.978 222.815 267.104 222.67 267.104 222.491V221.152C267.104 220.974 266.978 220.829 266.822 220.829Z" fill="#3F3D56"/>
<path d="M272.599 220.829H270.274C270.119 220.829 269.992 220.974 269.992 221.152V222.491C269.992 222.67 270.119 222.815 270.274 222.815H272.599C272.754 222.815 272.881 222.67 272.881 222.491V221.152C272.881 220.974 272.754 220.829 272.599 220.829Z" fill="#3F3D56"/>
<path d="M278.376 220.829H276.051C275.895 220.829 275.769 220.974 275.769 221.152V222.491C275.769 222.67 275.895 222.815 276.051 222.815H278.376C278.531 222.815 278.658 222.67 278.658 222.491V221.152C278.658 220.974 278.531 220.829 278.376 220.829Z" fill="#3F3D56"/>
<path d="M284.152 220.829H281.828C281.672 220.829 281.546 220.974 281.546 221.152V222.491C281.546 222.67 281.672 222.815 281.828 222.815H284.152C284.308 222.815 284.434 222.67 284.434 222.491V221.152C284.434 220.974 284.308 220.829 284.152 220.829Z" fill="#3F3D56"/>
<path d="M289.929 220.829H287.605C287.449 220.829 287.323 220.974 287.323 221.152V222.491C287.323 222.67 287.449 222.815 287.605 222.815H289.929C290.085 222.815 290.211 222.67 290.211 222.491V221.152C290.211 220.974 290.085 220.829 289.929 220.829Z" fill="#3F3D56"/>
<path d="M295.706 220.829H293.382C293.226 220.829 293.1 220.974 293.1 221.152V222.491C293.1 222.67 293.226 222.815 293.382 222.815H295.706C295.862 222.815 295.988 222.67 295.988 222.491V221.152C295.988 220.974 295.862 220.829 295.706 220.829Z" fill="#3F3D56"/>
<path d="M301.483 220.829H299.158C299.003 220.829 298.876 220.974 298.876 221.152V222.491C298.876 222.67 299.003 222.815 299.158 222.815H301.483C301.639 222.815 301.765 222.67 301.765 222.491V221.152C301.765 220.974 301.639 220.829 301.483 220.829Z" fill="#3F3D56"/>
<path d="M307.26 220.829H304.935C304.78 220.829 304.653 220.974 304.653 221.152V222.491C304.653 222.67 304.78 222.815 304.935 222.815H307.26C307.415 222.815 307.542 222.67 307.542 222.491V221.152C307.542 220.974 307.415 220.829 307.26 220.829Z" fill="#3F3D56"/>
<path d="M313.037 220.829H310.712C310.556 220.829 310.43 220.974 310.43 221.152V222.491C310.43 222.67 310.556 222.815 310.712 222.815H313.037C313.192 222.815 313.319 222.67 313.319 222.491V221.152C313.319 220.974 313.192 220.829 313.037 220.829Z" fill="#3F3D56"/>
<path d="M318.813 220.829H316.489C316.333 220.829 316.207 220.974 316.207 221.152V222.491C316.207 222.67 316.333 222.815 316.489 222.815H318.813C318.969 222.815 319.095 222.67 319.095 222.491V221.152C319.095 220.974 318.969 220.829 318.813 220.829Z" fill="#3F3D56"/>
<path d="M324.59 220.829H322.266C322.11 220.829 321.984 220.974 321.984 221.152V222.491C321.984 222.67 322.11 222.815 322.266 222.815H324.59C324.746 222.815 324.872 222.67 324.872 222.491V221.152C324.872 220.974 324.746 220.829 324.59 220.829Z" fill="#3F3D56"/>
<path d="M330.367 220.829H328.043C327.887 220.829 327.761 220.974 327.761 221.152V222.491C327.761 222.67 327.887 222.815 328.043 222.815H330.367C330.523 222.815 330.649 222.67 330.649 222.491V221.152C330.649 220.974 330.523 220.829 330.367 220.829Z" fill="#3F3D56"/>
<path d="M336.144 220.829H333.82C333.664 220.829 333.538 220.974 333.538 221.152V222.491C333.538 222.67 333.664 222.815 333.82 222.815H336.144C336.3 222.815 336.426 222.67 336.426 222.491V221.152C336.426 220.974 336.3 220.829 336.144 220.829Z" fill="#3F3D56"/>
<path d="M341.921 220.829H339.596C339.441 220.829 339.314 220.974 339.314 221.152V222.491C339.314 222.67 339.441 222.815 339.596 222.815H341.921C342.077 222.815 342.203 222.67 342.203 222.491V221.152C342.203 220.974 342.077 220.829 341.921 220.829Z" fill="#3F3D56"/>
<path d="M255.2 224.138H252.876C252.72 224.138 252.594 224.283 252.594 224.461V225.801C252.594 225.979 252.72 226.124 252.876 226.124H255.2C255.356 226.124 255.482 225.979 255.482 225.801V224.461C255.482 224.283 255.356 224.138 255.2 224.138Z" fill="#3F3D56"/>
<path d="M260.977 224.138H258.652C258.497 224.138 258.37 224.283 258.37 224.461V225.801C258.37 225.979 258.497 226.124 258.652 226.124H260.977C261.132 226.124 261.259 225.979 261.259 225.801V224.461C261.259 224.283 261.132 224.138 260.977 224.138Z" fill="#3F3D56"/>
<path d="M266.754 224.138H264.429C264.273 224.138 264.147 224.283 264.147 224.461V225.801C264.147 225.979 264.273 226.124 264.429 226.124H266.754C266.909 226.124 267.036 225.979 267.036 225.801V224.461C267.036 224.283 266.909 224.138 266.754 224.138Z" fill="#3F3D56"/>
<path d="M272.53 224.138H270.206C270.05 224.138 269.924 224.283 269.924 224.461V225.801C269.924 225.979 270.05 226.124 270.206 226.124H272.53C272.686 226.124 272.812 225.979 272.812 225.801V224.461C272.812 224.283 272.686 224.138 272.53 224.138Z" fill="#3F3D56"/>
<path d="M278.307 224.138H275.983C275.827 224.138 275.701 224.283 275.701 224.461V225.801C275.701 225.979 275.827 226.124 275.983 226.124H278.307C278.463 226.124 278.589 225.979 278.589 225.801V224.461C278.589 224.283 278.463 224.138 278.307 224.138Z" fill="#3F3D56"/>
<path d="M284.084 224.138H281.76C281.604 224.138 281.478 224.283 281.478 224.461V225.801C281.478 225.979 281.604 226.124 281.76 226.124H284.084C284.24 226.124 284.366 225.979 284.366 225.801V224.461C284.366 224.283 284.24 224.138 284.084 224.138Z" fill="#3F3D56"/>
<path d="M289.861 224.138H287.537C287.381 224.138 287.255 224.283 287.255 224.461V225.801C287.255 225.979 287.381 226.124 287.537 226.124H289.861C290.017 226.124 290.143 225.979 290.143 225.801V224.461C290.143 224.283 290.017 224.138 289.861 224.138Z" fill="#3F3D56"/>
<path d="M295.638 224.138H293.313C293.158 224.138 293.031 224.283 293.031 224.461V225.801C293.031 225.979 293.158 226.124 293.313 226.124H295.638C295.794 226.124 295.92 225.979 295.92 225.801V224.461C295.92 224.283 295.794 224.138 295.638 224.138Z" fill="#3F3D56"/>
<path d="M301.415 224.138H299.09C298.934 224.138 298.808 224.283 298.808 224.461V225.801C298.808 225.979 298.934 226.124 299.09 226.124H301.415C301.57 226.124 301.697 225.979 301.697 225.801V224.461C301.697 224.283 301.57 224.138 301.415 224.138Z" fill="#3F3D56"/>
<path d="M307.191 224.138H304.867C304.711 224.138 304.585 224.283 304.585 224.461V225.801C304.585 225.979 304.711 226.124 304.867 226.124H307.191C307.347 226.124 307.473 225.979 307.473 225.801V224.461C307.473 224.283 307.347 224.138 307.191 224.138Z" fill="#3F3D56"/>
<path d="M312.968 224.138H310.644C310.488 224.138 310.362 224.283 310.362 224.461V225.801C310.362 225.979 310.488 226.124 310.644 226.124H312.968C313.124 226.124 313.25 225.979 313.25 225.801V224.461C313.25 224.283 313.124 224.138 312.968 224.138Z" fill="#3F3D56"/>
<path d="M318.745 224.138H316.421C316.265 224.138 316.139 224.283 316.139 224.461V225.801C316.139 225.979 316.265 226.124 316.421 226.124H318.745C318.901 226.124 319.027 225.979 319.027 225.801V224.461C319.027 224.283 318.901 224.138 318.745 224.138Z" fill="#3F3D56"/>
<path d="M324.522 224.138H322.198C322.042 224.138 321.916 224.283 321.916 224.461V225.801C321.916 225.979 322.042 226.124 322.198 226.124H324.522C324.678 226.124 324.804 225.979 324.804 225.801V224.461C324.804 224.283 324.678 224.138 324.522 224.138Z" fill="#3F3D56"/>
<path d="M330.299 224.138H327.974C327.819 224.138 327.692 224.283 327.692 224.461V225.801C327.692 225.979 327.819 226.124 327.974 226.124H330.299C330.455 226.124 330.581 225.979 330.581 225.801V224.461C330.581 224.283 330.455 224.138 330.299 224.138Z" fill="#3F3D56"/>
<path d="M336.076 224.138H333.751C333.596 224.138 333.469 224.283 333.469 224.461V225.801C333.469 225.979 333.596 226.124 333.751 226.124H336.076C336.231 226.124 336.358 225.979 336.358 225.801V224.461C336.358 224.283 336.231 224.138 336.076 224.138Z" fill="#3F3D56"/>
<path d="M341.852 224.138H339.528C339.372 224.138 339.246 224.283 339.246 224.461V225.801C339.246 225.979 339.372 226.124 339.528 226.124H341.852C342.008 226.124 342.135 225.979 342.135 225.801V224.461C342.135 224.283 342.008 224.138 341.852 224.138Z" fill="#3F3D56"/>
<path d="M303.148 228.109H280.604C280.449 228.109 280.322 228.254 280.322 228.433V229.772C280.322 229.95 280.449 230.095 280.604 230.095H303.148C303.303 230.095 303.43 229.95 303.43 229.772V228.433C303.43 228.254 303.303 228.109 303.148 228.109Z" fill="#5B5460"/>
<path d="M109.991 382.336L105.537 374.136L104.647 378.822C104.491 379.643 104.335 380.477 104.191 381.304C102.926 380.066 101.58 378.921 100.263 377.822C96.2188 374.46 92.1769 371.093 88.1369 367.722L89.402 376.128C90.1819 381.304 90.9965 386.586 92.9259 391.318C93.1397 391.854 93.3707 392.384 93.6192 392.9H112.417C112.568 392.42 112.673 391.923 112.729 391.417C112.734 391.384 112.736 391.351 112.735 391.318C113.029 388.108 111.481 385.083 109.991 382.336Z" fill="#F0F0F0"/>
<path d="M467.312 393.797L308.016 394C307.834 393.999 307.659 393.916 307.531 393.768C307.402 393.621 307.33 393.421 307.33 393.212C307.33 393.003 307.402 392.803 307.531 392.655C307.659 392.508 307.834 392.424 308.016 392.424L467.312 392.22C467.494 392.221 467.669 392.304 467.797 392.452C467.926 392.6 467.998 392.8 467.998 393.009C467.998 393.217 467.926 393.417 467.797 393.565C467.669 393.713 467.494 393.796 467.312 393.797Z" fill="#363535"/>
<path d="M159.984 393.797L0.68783 394C0.505749 393.999 0.331309 393.916 0.202745 393.768C0.0741802 393.621 0.00197983 393.421 0.00197983 393.212C0.00197983 393.003 0.0741802 392.803 0.202745 392.655C0.331309 392.508 0.505749 392.424 0.68783 392.424L159.984 392.22C160.166 392.221 160.341 392.304 160.469 392.452C160.598 392.6 160.67 392.8 160.67 393.009C160.67 393.217 160.598 393.417 160.469 393.565C160.341 393.713 160.166 393.796 159.984 393.797Z" fill="#363535"/>
<path d="M103.043 28.0665C100.287 29.0064 97.7164 26.3655 95.7985 23.8637L96.4802 24.7903C91.9685 28.4306 89.2707 34.3609 87.5203 40.364C85.7699 46.3606 84.7936 52.6417 82.8179 58.5522C80.8423 64.456 77.6534 70.168 72.772 73.1133C66.2326 77.058 58.2201 75.2643 51.2648 72.4183C51.1724 72.3786 51.0857 72.3455 50.9933 72.3058C53.8103 66.2769 55.5355 59.6583 56.0654 52.8469C53.2041 59.247 49.0777 64.7929 44.0149 69.0428C39.4702 66.6758 35.1002 63.8913 30.9477 60.7165C28.2614 58.6581 25.4308 55.9974 25.1188 52.3108C24.8011 48.6506 27.1869 45.3082 30.0003 43.5476C32.8136 41.7871 36.0486 41.1914 39.1219 40.1324C42.1894 39.08 45.3204 37.3525 46.9322 34.1756C50.6467 26.8686 44.3961 16.5633 48.3822 9.44158C50.3463 5.9403 54.159 4.53714 57.6944 3.56419C63.0907 2.08534 68.5681 1.02615 74.0891 0.393851C78.9359 -0.162118 83.9444 -0.367295 88.5543 1.41975C93.1643 3.20679 97.3467 7.3567 98.3345 12.8237C101.027 14.4453 103.875 16.239 105.319 19.3166C106.763 22.3877 105.96 27.0737 103.043 28.0665Z" fill="#18181C"/>
<path d="M98.9292 26.8353C96.2906 30.6224 94.8543 34.7179 94.8543 37.1706C89.3728 48.6488 97.2114 58.5081 107.23 64.7882C111.226 67.3062 115.84 68.2278 120.344 67.4076L120.763 65.3576L121.331 67.2042C121.331 67.2042 127.853 91.8872 130.005 93.3352C129.188 88.9424 128.253 68.6034 127.799 64.3164C127.169 58.4814 129.363 49.7948 130.945 44.5122C131.926 41.2565 132.43 37.837 132.435 34.3927V34.2421L133.976 39.912L139.585 37.1706C138.541 30.313 139.585 22.528 127.074 23.2032C120.308 17.8716 114.35 17.0595 109.455 18.5717C108.824 17.4528 105.181 19.5484 104.129 18.9593" fill="#18181C"/>
<path d="M377.807 54.7266V175.597C377.805 176.441 377.512 177.25 376.991 177.846C376.471 178.443 375.765 178.779 375.028 178.78H319.443C313.294 172.247 308.249 164.47 304.562 155.84C304.319 155.284 304.088 154.722 303.869 154.152C300.509 145.8 298.475 136.828 297.861 127.658C297.82 127.095 297.786 126.533 297.763 125.963C297.688 124.507 297.653 123.031 297.653 121.549C297.642 111.688 299.267 101.916 302.442 92.7509C302.632 92.1817 302.835 91.6191 303.043 91.0565C309.432 73.8564 320.978 59.8398 335.595 51.5364H375.028C375.765 51.5382 376.472 51.8751 376.993 52.4732C377.514 53.0713 377.807 53.8817 377.807 54.7266Z" fill="#D49B9B"/>
<path d="M367.104 68.1896H219.608C219.454 68.1857 219.308 68.1132 219.201 67.9876C219.094 67.862 219.034 67.6933 219.034 67.5176C219.034 67.3418 219.094 67.1731 219.201 67.0475C219.308 66.9219 219.454 66.8494 219.608 66.8456H367.104C367.257 66.8494 367.403 66.9219 367.51 67.0475C367.618 67.1731 367.678 67.3418 367.678 67.5176C367.678 67.6933 367.618 67.862 367.51 67.9876C367.403 68.1132 367.257 68.1857 367.104 68.1896Z" fill="#CACACA"/>
<path d="M229.648 63.4143C231.546 63.4143 233.085 61.6117 233.085 59.3881C233.085 57.1646 231.546 55.362 229.648 55.362C227.749 55.362 226.21 57.1646 226.21 59.3881C226.21 61.6117 227.749 63.4143 229.648 63.4143Z" fill="#3F3D56"/>
<path d="M241.523 63.4143C243.421 63.4143 244.96 61.6117 244.96 59.3881C244.96 57.1646 243.421 55.362 241.523 55.362C239.624 55.362 238.085 57.1646 238.085 59.3881C238.085 61.6117 239.624 63.4143 241.523 63.4143Z" fill="#3F3D56"/>
<path d="M253.398 63.4143C255.296 63.4143 256.835 61.6117 256.835 59.3881C256.835 57.1646 255.296 55.362 253.398 55.362C251.499 55.362 249.96 57.1646 249.96 59.3881C249.96 61.6117 251.499 63.4143 253.398 63.4143Z" fill="#3F3D56"/>
<path d="M359.954 56.3599H351.519C351.352 56.3637 351.192 56.4424 351.075 56.5793C350.958 56.7161 350.893 56.9001 350.893 57.0917C350.893 57.2833 350.958 57.4673 351.075 57.6041C351.192 57.7409 351.352 57.8197 351.519 57.8234H359.954C360.121 57.8197 360.281 57.7409 360.398 57.6041C360.515 57.4673 360.58 57.2833 360.58 57.0917C360.58 56.9001 360.515 56.7161 360.398 56.5793C360.281 56.4424 360.121 56.3637 359.954 56.3599Z" fill="#3F3D56"/>
<path d="M359.954 59.1068H351.519C351.352 59.1106 351.192 59.1893 351.075 59.3261C350.958 59.463 350.893 59.6469 350.893 59.8386C350.893 60.0302 350.958 60.2142 351.075 60.351C351.192 60.4878 351.352 60.5666 351.519 60.5703H359.954C360.121 60.5666 360.281 60.4878 360.398 60.351C360.515 60.2142 360.58 60.0302 360.58 59.8386C360.58 59.6469 360.515 59.463 360.398 59.3261C360.281 59.1893 360.121 59.1106 359.954 59.1068Z" fill="#3F3D56"/>
<path d="M359.954 61.85H351.519C351.352 61.8538 351.192 61.9326 351.075 62.0694C350.958 62.2062 350.893 62.3902 350.893 62.5818C350.893 62.7734 350.958 62.9574 351.075 63.0942C351.192 63.2311 351.352 63.3098 351.519 63.3136H359.954C360.121 63.3098 360.281 63.2311 360.398 63.0942C360.515 62.9574 360.58 62.7734 360.58 62.5818C360.58 62.3902 360.515 62.2062 360.398 62.0694C360.281 61.9326 360.121 61.8538 359.954 61.85Z" fill="#3F3D56"/>
<path d="M263.671 107.45H245.241C243.857 107.45 242.734 108.736 242.734 110.322C242.734 111.908 243.857 113.194 245.241 113.194H263.671C265.056 113.194 266.178 111.908 266.178 110.322C266.178 108.736 265.056 107.45 263.671 107.45Z" fill="#D49B9B"/>
<path d="M275.578 118.938H233.335C231.951 118.938 230.828 120.223 230.828 121.809C230.828 123.395 231.951 124.681 233.335 124.681H275.578C276.962 124.681 278.084 123.395 278.084 121.809C278.084 120.223 276.962 118.938 275.578 118.938Z" fill="#E6E6E6"/>
<path d="M275.578 130.425H233.335C231.951 130.425 230.828 131.711 230.828 133.297V133.297C230.828 134.883 231.951 136.169 233.335 136.169H275.578C276.962 136.169 278.084 134.883 278.084 133.297C278.084 131.711 276.962 130.425 275.578 130.425Z" fill="#E6E6E6"/>
<path d="M234.685 171.851C234.689 174.217 234.321 176.564 233.599 178.78H217.395C216.659 178.779 215.953 178.443 215.432 177.846C214.911 177.25 214.618 176.441 214.617 175.597V152.246C215.522 152.078 216.438 151.994 217.355 151.995C219.631 151.995 221.884 152.508 223.987 153.506C226.09 154.504 228 155.966 229.61 157.81C231.219 159.654 232.495 161.843 233.366 164.252C234.237 166.661 234.685 169.243 234.685 171.851Z" fill="#D49B9B"/>
<path opacity="0.2" d="M377.951 92.7509V91.0565H353.163V71.4189H351.689V91.0565H323.279V71.4189H321.806V91.0565H303.043C302.835 91.6191 302.632 92.1817 302.442 92.7509H321.806V125.963H297.763C297.786 126.533 297.82 127.095 297.861 127.658H321.806V154.152H303.869C304.088 154.722 304.319 155.284 304.562 155.84H321.806V178.112H323.279V155.84H351.689V178.112H353.163V155.84H377.951V154.152H353.163V127.658H377.951V125.963H353.163V92.7509H377.951ZM351.689 154.152H323.279V127.658H351.689V154.152ZM351.689 125.963H323.279V92.7509H351.689V125.963Z" fill="black"/>
<path d="M357.992 166.241C357.676 166.257 357.363 166.162 357.096 165.968C356.828 165.774 356.619 165.491 356.497 165.156C356.375 164.821 356.346 164.452 356.413 164.098C356.48 163.743 356.641 163.421 356.874 163.175L356.979 162.693C356.966 162.655 356.951 162.616 356.937 162.577C356.619 161.715 356.085 160.98 355.403 160.465C354.721 159.949 353.921 159.676 353.104 159.68C352.287 159.683 351.489 159.963 350.811 160.484C350.132 161.006 349.603 161.745 349.29 162.61C348.04 166.061 346.447 169.518 346.055 173.168C345.883 174.781 345.955 176.416 346.271 178C343.333 170.658 341.808 162.679 341.798 154.602C341.797 152.576 341.895 150.551 342.092 148.536C342.255 146.885 342.48 145.246 342.769 143.618C344.343 134.787 347.724 126.509 352.633 119.465C355.008 117.98 356.93 115.696 358.138 112.921C358.575 111.924 358.885 110.859 359.056 109.76C358.788 109.8 358.516 109.825 358.248 109.845C358.164 109.85 358.076 109.856 357.993 109.861L357.961 109.862C357.667 109.877 357.375 109.795 357.12 109.624C356.866 109.453 356.66 109.202 356.527 108.9C356.394 108.599 356.341 108.26 356.372 107.924C356.404 107.588 356.519 107.27 356.705 107.007C356.821 106.844 356.937 106.681 357.053 106.518C357.228 106.266 357.409 106.02 357.584 105.768C357.605 105.744 357.624 105.719 357.641 105.692C357.843 105.405 358.046 105.124 358.248 104.837C357.879 104.181 357.383 103.631 356.798 103.231C354.772 101.872 351.978 102.813 350.515 104.912C349.047 107.011 348.771 109.956 349.28 112.579C349.781 114.811 350.61 116.928 351.732 118.841C351.622 119.002 351.508 119.158 351.398 119.319C349.39 122.278 347.64 125.454 346.173 128.803C346.53 125.051 346.104 121.256 344.93 117.729C343.741 114.442 341.512 111.673 339.549 108.832C337.192 105.419 332.357 106.908 331.941 111.235C331.937 111.277 331.933 111.319 331.93 111.361C332.221 111.549 332.506 111.749 332.786 111.961C333.137 112.229 333.408 112.613 333.566 113.061C333.723 113.51 333.758 114.003 333.667 114.474C333.576 114.946 333.362 115.376 333.054 115.706C332.746 116.037 332.358 116.253 331.942 116.327L331.899 116.334C332.003 117.538 332.186 118.731 332.448 119.903C333.206 123.175 334.547 126.232 336.385 128.883C338.223 131.534 340.519 133.721 343.129 135.307C343.3 135.408 343.467 135.509 343.639 135.604C342.165 140.39 341.24 145.375 340.888 150.434C340.689 153.419 340.701 156.417 340.923 159.4L340.91 159.294C340.348 155.977 338.804 152.985 336.539 150.822C333.174 147.655 328.421 146.489 324.792 143.944C324.406 143.661 323.957 143.509 323.499 143.508C323.041 143.507 322.592 143.656 322.205 143.937C321.818 144.219 321.509 144.621 321.315 145.097C321.121 145.573 321.05 146.103 321.111 146.623C321.116 146.66 321.12 146.697 321.126 146.734C321.667 146.987 322.193 147.278 322.703 147.605C322.994 147.794 323.28 147.994 323.559 148.205C323.91 148.474 324.182 148.857 324.339 149.306C324.496 149.755 324.531 150.247 324.44 150.719C324.349 151.191 324.135 151.62 323.827 151.951C323.52 152.281 323.132 152.497 322.715 152.571L322.672 152.579C322.641 152.584 322.615 152.589 322.584 152.594C323.509 155.123 324.806 157.451 326.42 159.475C328.413 161.926 330.823 163.884 333.5 165.23C336.178 166.576 339.067 167.282 341.991 167.303H341.995C342.789 171.255 343.939 175.101 345.427 178.78H357.685C357.729 178.624 357.769 178.463 357.808 178.307C356.674 178.389 355.535 178.311 354.416 178.076C355.326 176.797 356.235 175.508 357.145 174.23C357.165 174.206 357.184 174.181 357.202 174.154C357.663 173.5 358.129 172.85 358.59 172.196L358.591 172.195C358.615 170.189 358.414 168.188 357.993 166.241L357.992 166.241ZM343.955 134.602L343.961 134.592L343.955 134.613V134.602ZM341.24 162.647L341.134 162.375C341.139 162.178 341.139 161.982 341.134 161.781C341.134 161.725 341.126 161.67 341.126 161.615C341.165 161.962 341.2 162.309 341.244 162.657L341.24 162.647Z" fill="#4A4A4A"/>
</svg>
