<svg width="409" height="307" viewBox="0 0 409 307" fill="none" xmlns="http://www.w3.org/2000/svg">
<g clip-path="url(#clip0_135_151)">
<path d="M378.684 284.526L389.701 281.503C391.074 276.39 390.983 271.064 389.436 265.987C385.01 274.499 372.024 276.584 364.625 283.377C362.336 285.511 360.632 288.063 359.638 290.845C358.645 293.626 358.388 296.564 358.887 299.443L356.569 306.243C361.982 305.843 367.231 304.433 371.954 302.11C376.677 299.786 380.761 296.605 383.925 292.785C385.676 290.627 387.105 288.287 388.18 285.82C383.481 285.413 378.684 284.526 378.684 284.526Z" fill="#F2F2F2"/>
<path d="M366.911 271.951L375.214 264.997C373.805 259.891 370.977 255.159 366.975 251.212C367.402 260.537 356.854 267.412 353.735 276.346C352.787 279.139 352.578 282.08 353.123 284.953C353.668 287.825 354.954 290.554 356.884 292.939L358.317 299.919C362.956 297.473 366.927 294.186 369.956 290.285C372.985 286.384 375 281.962 375.862 277.322C376.316 274.716 376.388 272.07 376.078 269.447C371.663 270.895 366.911 271.951 366.911 271.951Z" fill="#F2F2F2"/>
<path d="M311.721 20.3838H1.20773C0.88476 20.3779 0.577332 20.2628 0.351339 20.0632C0.125345 19.8635 -0.0012207 19.5953 -0.0012207 19.3159C-0.0012207 19.0366 0.125345 18.7683 0.351339 18.5687C0.577332 18.3691 0.88476 18.2539 1.20773 18.248H311.721C312.044 18.2539 312.352 18.3691 312.578 18.5687C312.804 18.7683 312.93 19.0366 312.93 19.3159C312.93 19.5953 312.804 19.8635 312.578 20.0632C312.352 20.2628 312.044 20.3779 311.721 20.3838Z" fill="#3F3D56"/>
<path d="M22.3451 12.7956C26.3418 12.7956 29.5817 9.93121 29.5817 6.3978C29.5817 2.86439 26.3418 0 22.3451 0C18.3484 0 15.1084 2.86439 15.1084 6.3978C15.1084 9.93121 18.3484 12.7956 22.3451 12.7956Z" fill="#3F3D56"/>
<path d="M47.3443 12.7956C51.341 12.7956 54.581 9.93121 54.581 6.3978C54.581 2.86439 51.341 0 47.3443 0C43.3476 0 40.1077 2.86439 40.1077 6.3978C40.1077 9.93121 43.3476 12.7956 47.3443 12.7956Z" fill="#3F3D56"/>
<path d="M72.3436 12.7956C76.3403 12.7956 79.5802 9.93121 79.5802 6.3978C79.5802 2.86439 76.3403 0 72.3436 0C68.3469 0 65.1069 2.86439 65.1069 6.3978C65.1069 9.93121 68.3469 12.7956 72.3436 12.7956Z" fill="#3F3D56"/>
<path d="M296.67 1.58577H278.911C278.559 1.59183 278.224 1.71701 277.978 1.93442C277.731 2.15184 277.593 2.44415 277.593 2.74861C277.593 3.05306 277.731 3.34538 277.978 3.56279C278.224 3.78021 278.559 3.90538 278.911 3.91144H296.67C297.022 3.90538 297.357 3.78021 297.603 3.56279C297.85 3.34538 297.988 3.05306 297.988 2.74861C297.988 2.44415 297.85 2.15184 297.603 1.93442C297.357 1.71701 297.022 1.59183 296.67 1.58577Z" fill="#3F3D56"/>
<path d="M296.67 5.9507H278.911C278.559 5.95672 278.224 6.08189 277.978 6.2993C277.731 6.51672 277.593 6.80906 277.593 7.11354C277.593 7.41802 277.731 7.71036 277.978 7.92778C278.224 8.14519 278.559 8.27035 278.911 8.27637H296.67C297.022 8.27035 297.357 8.14519 297.603 7.92778C297.85 7.71036 297.988 7.41802 297.988 7.11354C297.988 6.80906 297.85 6.51672 297.603 6.2993C297.357 6.08189 297.022 5.95672 296.67 5.9507Z" fill="#3F3D56"/>
<path d="M296.67 10.3099H278.911C278.559 10.3159 278.224 10.4411 277.978 10.6585C277.731 10.8759 277.593 11.1683 277.593 11.4728C277.593 11.7772 277.731 12.0696 277.978 12.287C278.224 12.5044 278.559 12.6296 278.911 12.6356H296.67C297.022 12.6296 297.357 12.5044 297.603 12.287C297.85 12.0696 297.988 11.7772 297.988 11.4728C297.988 11.1683 297.85 10.8759 297.603 10.6585C297.357 10.4411 297.022 10.3159 296.67 10.3099Z" fill="#3F3D56"/>
<path d="M24.0551 63.7712C28.9962 63.7712 33.0018 60.3071 33.0018 56.034C33.0018 51.7608 28.9962 48.2968 24.0551 48.2968C19.114 48.2968 15.1084 51.7608 15.1084 56.034C15.1084 60.3071 19.114 63.7712 24.0551 63.7712Z" fill="#E6E7E8"/>
<path d="M251.884 73.1668H17.7725C17.066 73.1668 16.3883 72.9241 15.8887 72.492C15.3891 72.0599 15.1084 71.4739 15.1084 70.8628C15.1084 70.2518 15.3891 69.6658 15.8887 69.2337C16.3883 68.8016 17.066 68.5589 17.7725 68.5589H251.884C252.591 68.5589 253.268 68.8016 253.768 69.2337C254.268 69.6658 254.548 70.2518 254.548 70.8628C254.548 71.4739 254.268 72.0599 253.768 72.492C253.268 72.9241 252.591 73.1668 251.884 73.1668Z" fill="#E6E7E8"/>
<path d="M190.484 82.271H17.7727C17.0661 82.271 16.3884 82.0283 15.8888 81.5962C15.3891 81.1641 15.1084 80.578 15.1084 79.9669C15.1084 79.3559 15.3891 78.7698 15.8888 78.3377C16.3884 77.9056 17.0661 77.6629 17.7727 77.6629H190.484C191.191 77.6629 191.869 77.9056 192.368 78.3377C192.868 78.7698 193.149 79.3559 193.149 79.9669C193.149 80.578 192.868 81.1641 192.368 81.5962C191.869 82.0283 191.191 82.271 190.484 82.271Z" fill="#E6E7E8"/>
<path d="M24.0551 184.537C28.9962 184.537 33.0018 181.073 33.0018 176.8C33.0018 172.526 28.9962 169.062 24.0551 169.062C19.114 169.062 15.1084 172.526 15.1084 176.8C15.1084 181.073 19.114 184.537 24.0551 184.537Z" fill="#E6E7E8"/>
<path d="M251.884 193.932H17.7727C17.4224 193.933 17.0755 193.874 16.7518 193.758C16.4281 193.643 16.1339 193.473 15.8861 193.259C15.6382 193.045 15.4416 192.791 15.3075 192.511C15.1733 192.231 15.1042 191.931 15.1042 191.628C15.1042 191.326 15.1733 191.026 15.3075 190.746C15.4416 190.466 15.6382 190.212 15.8861 189.998C16.1339 189.784 16.4281 189.614 16.7518 189.499C17.0755 189.383 17.4224 189.324 17.7727 189.324H251.884C252.626 189.36 253.326 189.635 253.847 190.094C254.367 190.553 254.67 191.164 254.696 191.806C254.674 192.106 254.584 192.399 254.431 192.668C254.277 192.938 254.064 193.178 253.802 193.376C253.541 193.573 253.237 193.724 252.908 193.82C252.578 193.915 252.231 193.954 251.884 193.932Z" fill="#E6E7E8"/>
<path d="M190.484 203.037H17.7727C17.0661 203.037 16.3884 202.794 15.8888 202.362C15.3891 201.93 15.1084 201.344 15.1084 200.733C15.1084 200.121 15.3891 199.535 15.8888 199.103C16.3884 198.671 17.0661 198.428 17.7727 198.428H190.484C191.191 198.428 191.869 198.671 192.368 199.103C192.868 199.535 193.149 200.121 193.149 200.733C193.149 201.344 192.868 201.93 192.368 202.362C191.869 202.794 191.191 203.037 190.484 203.037Z" fill="#E6E7E8"/>
<path d="M24.0551 119.602C28.9962 119.602 33.0018 116.138 33.0018 111.865C33.0018 107.592 28.9962 104.128 24.0551 104.128C19.114 104.128 15.1084 107.592 15.1084 111.865C15.1084 116.138 19.114 119.602 24.0551 119.602Z" fill="#E6E7E8"/>
<path d="M251.884 128.998H17.7725C17.066 128.998 16.3883 128.755 15.8887 128.323C15.3891 127.891 15.1084 127.305 15.1084 126.694C15.1084 126.083 15.3891 125.496 15.8887 125.064C16.3883 124.632 17.066 124.39 17.7725 124.39H251.884C252.591 124.39 253.268 124.632 253.768 125.064C254.268 125.496 254.548 126.083 254.548 126.694C254.548 127.305 254.268 127.891 253.768 128.323C253.268 128.755 252.591 128.998 251.884 128.998Z" fill="#E6E7E8"/>
<path d="M219.282 138.102H17.7727C17.0661 138.102 16.3884 137.859 15.8888 137.427C15.3891 136.995 15.1084 136.409 15.1084 135.798C15.1084 135.187 15.3891 134.6 15.8888 134.168C16.3884 133.736 17.0661 133.494 17.7727 133.494H219.282C219.989 133.494 220.667 133.736 221.166 134.168C221.666 134.6 221.947 135.187 221.947 135.798C221.947 136.409 221.666 136.995 221.166 137.427C220.667 137.859 219.989 138.102 219.282 138.102Z" fill="#E6E7E8"/>
<path d="M205.605 147.206H17.7727C17.0661 147.206 16.3884 146.963 15.8888 146.531C15.3891 146.099 15.1084 145.513 15.1084 144.902C15.1084 144.291 15.3891 143.705 15.8888 143.273C16.3884 142.84 17.0661 142.598 17.7727 142.598H205.605C206.312 142.598 206.99 142.84 207.489 143.273C207.989 143.705 208.27 144.291 208.27 144.902C208.27 145.513 207.989 146.099 207.489 146.531C206.99 146.963 206.312 147.206 205.605 147.206Z" fill="#E6E7E8"/>
<path d="M209.492 249.065C246.083 249.065 275.747 223.412 275.747 191.767C275.747 160.122 246.083 134.469 209.492 134.469C172.9 134.469 143.237 160.122 143.237 191.767C143.237 223.412 172.9 249.065 209.492 249.065Z" fill="#6C63FF"/>
<path d="M209.401 211.758C214.628 211.758 218.866 208.094 218.866 203.573C218.866 199.052 214.628 195.387 209.401 195.387C204.173 195.387 199.936 199.052 199.936 203.573C199.936 208.094 204.173 211.758 209.401 211.758Z" fill="#3F3D56"/>
<path d="M209.401 207.351C211.814 207.351 213.769 205.659 213.769 203.573C213.769 201.486 211.814 199.795 209.401 199.795C206.988 199.795 205.032 201.486 205.032 203.573C205.032 205.659 206.988 207.351 209.401 207.351Z" fill="#6C63FF"/>
<path d="M226.971 221.794H192.013C188.552 221.791 185.233 220.6 182.786 218.483C180.338 216.367 178.961 213.497 178.957 210.503V196.642C178.961 193.649 180.338 190.779 182.786 188.662C185.233 186.545 188.552 185.355 192.013 185.351H226.971C230.432 185.355 233.751 186.546 236.198 188.662C238.646 190.779 240.023 193.649 240.027 196.642V210.503C240.023 213.497 238.646 216.367 236.198 218.483C233.751 220.6 230.432 221.79 226.971 221.794ZM192.013 186.534C188.914 186.537 185.943 187.603 183.752 189.498C181.56 191.393 180.328 193.962 180.324 196.642V210.503C180.328 213.183 181.561 215.753 183.752 217.648C185.943 219.543 188.914 220.609 192.013 220.612H226.971C230.07 220.609 233.041 219.543 235.232 217.648C237.423 215.753 238.656 213.183 238.659 210.503V196.642C238.656 193.962 237.423 191.393 235.232 189.498C233.041 187.603 230.07 186.537 226.971 186.534L192.013 186.534Z" fill="white"/>
<path d="M189.943 214.27H220.971C222.582 214.27 224.176 213.996 225.664 213.463C227.152 212.93 228.504 212.148 229.643 211.163C230.782 210.179 231.685 209.009 232.301 207.723C232.918 206.436 233.235 205.057 233.235 203.664V192.064C233.233 190.778 232.958 189.503 232.426 188.302C233.94 189.287 235.168 190.564 236.014 192.03C236.86 193.497 237.3 195.113 237.3 196.752V208.351C237.3 209.744 236.983 211.123 236.366 212.41C235.75 213.697 234.847 214.866 233.708 215.851C232.569 216.836 231.217 217.617 229.729 218.15C228.241 218.683 226.647 218.957 225.036 218.957H194.008C191.521 218.956 189.094 218.301 187.048 217.078C185.002 215.856 183.434 214.125 182.553 212.114C184.677 213.513 187.273 214.27 189.943 214.27Z" fill="#3F3D56"/>
<path d="M284.961 299.42L277.337 299.419L273.71 273.986L284.963 273.986L284.961 299.42Z" fill="#A0616A"/>
<path d="M285.23 306.298L261.784 306.297V306.041C261.784 303.948 262.745 301.941 264.457 300.461C266.168 298.981 268.489 298.149 270.91 298.149H270.91L275.193 295.339L283.184 298.149L285.23 298.149L285.23 306.298Z" fill="#2F2E41"/>
<path d="M338.91 299.42L346.534 299.419L350.162 273.986L338.908 273.986L338.91 299.42Z" fill="#A0616A"/>
<path d="M338.641 306.298L362.088 306.297V306.041C362.088 303.948 361.126 301.941 359.415 300.461C357.703 298.981 355.382 298.149 352.962 298.149H352.961L348.679 295.339L340.688 298.149L338.641 298.149L338.641 306.298Z" fill="#2F2E41"/>
<path d="M273.375 255.296C273.487 253.845 274.382 245.819 274.382 245.819L276.527 228.798L280.307 183.681L280.553 180.727L300.353 177.44L313.885 171.83L329.969 176.276L342.493 180.338C342.493 180.338 342.514 182.076 342.611 184.177C342.739 186.926 342.964 190.297 343.5 191.173C344.396 192.722 344.171 201.035 344.171 201.035C344.171 201.035 345.061 217.949 346.181 219.804C347.302 221.658 347.527 225.521 347.189 226.295C346.851 227.069 348.31 247.382 348.31 247.382C348.31 247.382 352.052 283.327 349.704 288.748C347.356 294.168 338.482 290.617 338.482 290.617C338.482 290.617 338.911 289.171 336.338 288.489C333.764 287.807 325.926 236.838 325.926 236.838C325.926 236.838 324.468 226.387 323.127 223.392C321.787 220.397 320.554 211.982 320.554 211.982C320.554 211.982 312.276 198.054 312.169 194.957C312.169 194.957 311.086 192.059 310.062 195.249C309.038 198.439 306.02 206.08 306.02 206.08L303.076 215.464L299.613 229.485L297.372 241.289C297.372 241.289 294.016 256.956 293.479 257.633C292.943 258.31 293.479 272.623 293.479 272.623C293.479 272.623 290.885 284.812 287.217 286.94C283.55 289.069 273.835 286.974 273.835 286.974C273.835 286.974 273.262 256.747 273.375 255.296Z" fill="#2F2E41"/>
<path d="M281.821 139.578L286.223 151.044L280.792 156.635L283.183 158.764L281.419 161.773L276.819 193.31L302.039 201.582L310.531 192.374L317.228 201.582L346.409 195.415L338.967 155.198V152.569L336.866 147.492V136.745L342.415 104.753L325.854 99.7361L317.935 94.3162L315.373 101.939L304.462 100.26L304.178 94.5337L295.83 101.355L288.801 103.088L280.385 104.753L279.312 107.071L281.456 106.608L281.108 136.768L281.821 139.578Z" fill="#2F2E41"/>
<path d="M274.283 181.531L278.518 146.075L279.636 131.483L267.781 129.629C267.781 129.629 268.251 140.063 266.698 145.95C265.165 151.759 266.494 180.753 266.589 181.528C265.719 182.201 265.105 183.087 264.829 184.069C264.553 185.05 264.629 186.081 265.045 187.025C265.462 187.968 266.199 188.781 267.161 189.354C268.123 189.927 269.263 190.234 270.431 190.234C271.599 190.235 272.74 189.929 273.702 189.356C274.665 188.784 275.403 187.972 275.821 187.029C276.238 186.086 276.315 185.055 276.04 184.073C275.766 183.092 275.153 182.205 274.283 181.531Z" fill="#A0616A"/>
<path d="M262.719 153.422L266.016 154.011L277.328 156.037L277.956 156.149L279.291 151.559L280.84 150.13L283.789 136.768L283.944 136.073L288.4 127.838L291.482 103.088L280.019 104.869C279.96 104.92 279.907 104.975 279.853 105.031C278.207 106.645 277.033 108.889 275.114 111.147C268.868 118.496 264.075 136.351 264.263 146.134C264.268 146.291 264.081 146.463 263.855 146.639C262.792 147.484 262.099 148.62 261.892 149.856C261.685 151.092 261.977 152.351 262.719 153.422Z" fill="#2F2E41"/>
<path d="M347.98 181.531L343.745 146.075L342.627 131.483L354.482 129.629C354.482 129.629 354.012 140.063 355.565 145.95C357.098 151.759 355.769 180.753 355.674 181.528C356.545 182.201 357.158 183.087 357.434 184.069C357.71 185.05 357.634 186.081 357.218 187.025C356.802 187.968 356.064 188.781 355.102 189.354C354.14 189.927 353 190.234 351.832 190.234C350.664 190.235 349.523 189.929 348.561 189.356C347.599 188.784 346.86 187.972 346.442 187.029C346.025 186.086 345.948 185.055 346.223 184.073C346.498 183.092 347.11 182.205 347.98 181.531Z" fill="#A0616A"/>
<path d="M359.544 153.422L356.247 154.011L344.935 156.037L344.307 156.149L342.972 151.559L341.423 150.13L338.474 136.768L338.319 136.073L333.864 127.838L334.882 103.088L342.244 104.869C342.302 104.92 342.356 104.975 342.41 105.031C344.056 106.645 345.23 108.889 347.149 111.147C353.395 118.495 358.188 136.351 358 146.134C357.995 146.291 358.182 146.463 358.408 146.639C359.47 147.484 360.164 148.62 360.371 149.856C360.578 151.092 360.286 152.351 359.544 153.422Z" fill="#2F2E41"/>
<path d="M298.792 106.75L304.178 94.534L317.935 94.3161L322.5 106.75L338.908 186.02C338.908 186.02 288.64 198.126 289.15 183.574C289.686 168.273 292.105 147.949 292.105 147.949L298.792 106.75Z" fill="#6C63FF"/>
<path d="M310.749 91.117C319.699 91.117 326.955 84.8422 326.955 77.1019C326.955 69.3616 319.699 63.0868 310.749 63.0868C301.799 63.0868 294.543 69.3616 294.543 77.1019C294.543 84.8422 301.799 91.117 310.749 91.117Z" fill="#A0616A"/>
<path d="M293.587 66.9348C296.226 64.4513 299.526 59.9054 309.522 57.9964C321.873 55.6376 327.709 65.2869 324.594 65.4451C333.702 67.8303 327.852 84.1303 325.24 82.7632C325.218 82.7497 325.196 82.7352 325.176 82.7197C323.772 81.8253 322.593 80.6928 321.712 79.3912C320.831 78.0897 320.266 76.6464 320.051 75.1496L319.556 71.2924C319.485 74.4307 315.776 74.8459 311.987 73.6901C312.211 73.002 312.638 72.3763 313.227 71.8748C313.816 71.3733 314.546 71.0132 315.345 70.8302C312.704 72.9011 309.348 74.1638 305.796 74.4236C305.982 73.6378 306.36 72.8956 306.905 72.2467C307.451 71.5978 308.15 71.0574 308.957 70.6617L308.807 70.5346C307.328 71.6138 305.629 72.4457 303.797 72.9879C301.708 73.5057 299.206 73.2256 297.774 71.8115C297.389 71.4213 297.098 70.9682 296.918 70.4791C297.228 72.9645 295.3 75.8017 293.803 75.3146C292.557 75.1052 291.831 68.5881 293.587 66.9348Z" fill="#2F2E41"/>
<path d="M409 306.297C409 306.389 408.98 306.481 408.939 306.566C408.898 306.652 408.838 306.729 408.763 306.795C408.687 306.86 408.597 306.912 408.498 306.947C408.399 306.982 408.294 307 408.187 307H216.606C216.39 307 216.183 306.926 216.031 306.794C215.878 306.662 215.792 306.483 215.792 306.297C215.792 306.11 215.878 305.931 216.031 305.799C216.183 305.667 216.39 305.593 216.606 305.593H408.187C408.294 305.593 408.399 305.611 408.498 305.646C408.597 305.681 408.687 305.733 408.763 305.799C408.838 305.864 408.898 305.942 408.939 306.027C408.98 306.113 409 306.204 409 306.297Z" fill="#CCCCCC"/>
<path d="M210.03 160.699C203.55 160.699 197.854 163.237 194.628 167.045C198.076 164.875 202.239 163.72 206.503 163.75C216.538 163.75 224.702 169.829 224.702 177.301V183.512H228.229V174.251C228.229 166.779 220.065 160.699 210.03 160.699Z" fill="#3F3D56"/>
<path d="M230.653 186.691H188.331V175.923C188.331 167.234 197.824 160.166 209.492 160.166C221.16 160.166 230.653 167.234 230.653 175.923V186.691ZM189.698 185.509H229.286V175.923C229.286 167.886 220.406 161.348 209.492 161.348C198.577 161.348 189.698 167.886 189.698 175.923V185.509Z" fill="white"/>
<path d="M220.33 182.58H198.653C197.678 182.579 196.743 182.244 196.053 181.647C195.364 181.051 194.976 180.242 194.975 179.399V175.113C194.975 169.138 201.487 164.277 209.492 164.277C217.496 164.277 224.009 169.138 224.009 175.113V179.399C224.008 180.242 223.62 181.051 222.93 181.647C222.241 182.244 221.306 182.579 220.33 182.58ZM209.492 165.459C202.241 165.459 196.342 169.79 196.342 175.113V179.399C196.342 179.929 196.586 180.437 197.019 180.812C197.453 181.186 198.04 181.397 198.653 181.398H220.33C220.943 181.397 221.531 181.186 221.964 180.812C222.397 180.437 222.641 179.929 222.642 179.399V175.113C222.642 169.79 216.743 165.459 209.492 165.459Z" fill="white"/>
</g>
<defs>
<clipPath id="clip0_135_151">
<rect width="409" height="307" fill="white"/>
</clipPath>
</defs>
</svg>
