<svg width="413" height="360" viewBox="0 0 413 360" fill="none" xmlns="http://www.w3.org/2000/svg">
<path d="M170.536 271.086C243.116 271.086 301.954 216.25 301.954 148.607C301.954 80.9639 243.116 26.1283 170.536 26.1283C97.9559 26.1283 39.1182 80.9639 39.1182 148.607C39.1182 216.25 97.9559 271.086 170.536 271.086Z" fill="#C9C4C4"/>
<path d="M283.616 148.607C283.629 165.051 279.508 181.27 271.582 195.962C263.655 210.654 252.145 223.41 237.975 233.208C237.027 233.869 236.061 234.513 235.089 235.14C216.14 247.416 193.614 253.996 170.536 253.996C147.458 253.996 124.932 247.416 105.982 235.14C105.01 234.513 104.045 233.869 103.097 233.208C88.9362 223.402 77.4333 210.644 69.5082 195.954C61.5831 181.264 57.4556 165.049 57.4556 148.607C57.4556 132.165 61.5831 115.95 69.5082 101.26C77.4333 86.5704 88.9362 73.8121 103.097 64.0056C104.045 63.3448 105.01 62.701 105.982 62.0744C124.932 49.7981 147.458 43.2184 170.536 43.2184C193.614 43.2184 216.14 49.7981 235.089 62.0744C236.061 62.701 237.027 63.3448 237.975 64.0056C252.145 73.8035 263.655 86.56 271.582 101.252C279.508 115.944 283.629 132.162 283.616 148.607Z" fill="white"/>
<path d="M170.536 244.881C227.587 244.881 273.836 201.778 273.836 148.607C273.836 95.4364 227.587 52.3331 170.536 52.3331C113.485 52.3331 67.2354 95.4364 67.2354 148.607C67.2354 201.778 113.485 244.881 170.536 244.881Z" fill="#D9A6D1"/>
<path opacity="0.2" d="M170.805 52.6022C169.239 52.6022 167.683 52.6404 166.134 52.7046C192.243 54.8428 216.503 66.1505 234 84.3368C251.497 102.523 260.922 126.228 260.366 150.649C259.81 175.07 249.314 198.381 231.005 215.859C212.695 233.337 187.942 243.675 161.76 244.779C164.741 245.02 167.757 245.15 170.805 245.15C198.202 245.15 224.477 235.007 243.85 216.952C263.222 198.897 274.106 174.41 274.106 148.876C274.106 123.343 263.222 98.8551 243.85 80.8002C224.477 62.7453 198.202 52.6022 170.805 52.6022V52.6022Z" fill="black"/>
<path d="M170.842 45.4971C169.951 45.4985 169.096 45.8291 168.466 46.4164C167.836 47.0036 167.482 47.7997 167.48 48.6302V62.3023C167.48 63.1332 167.834 63.9302 168.465 64.5178C169.095 65.1054 169.95 65.4355 170.842 65.4355C171.733 65.4355 172.589 65.1054 173.219 64.5178C173.849 63.9302 174.204 63.1332 174.204 62.3023V48.6302C174.202 47.7997 173.847 47.0036 173.217 46.4164C172.587 45.8291 171.733 45.4985 170.842 45.4971Z" fill="white"/>
<path d="M237.974 64.0056C237.027 63.3447 236.061 62.701 235.089 62.0744C234.506 62.039 233.923 62.1459 233.398 62.3847C232.873 62.6234 232.423 62.9858 232.094 63.4359L223.836 74.7324C223.335 75.4191 223.146 76.2634 223.312 77.0796C223.479 77.8958 223.986 78.6171 224.723 79.0847C225.46 79.5523 226.365 79.7279 227.241 79.573C228.117 79.4181 228.891 78.9453 229.393 78.2587L237.651 66.9621C237.965 66.5336 238.159 66.0386 238.216 65.5222C238.272 65.0058 238.189 64.4845 237.974 64.0056Z" fill="white"/>
<path d="M275.493 115.515C275.327 115.134 275.082 114.787 274.772 114.495C274.462 114.202 274.093 113.969 273.687 113.81C273.281 113.65 272.844 113.566 272.403 113.564C271.962 113.561 271.525 113.64 271.116 113.795L257.522 118.939C256.697 119.252 256.039 119.858 255.693 120.623C255.347 121.388 255.341 122.25 255.676 123.019C256.011 123.789 256.661 124.402 257.481 124.726C258.302 125.049 259.227 125.055 260.053 124.744L273.647 119.599C274.472 119.285 275.129 118.678 275.475 117.912C275.821 117.147 275.827 116.285 275.493 115.515Z" fill="white"/>
<path d="M117.235 74.7324L108.977 63.4359C108.648 62.9858 108.199 62.6235 107.674 62.3847C107.148 62.1459 106.565 62.039 105.982 62.0744C105.01 62.701 104.045 63.3448 103.097 64.0056C102.882 64.4845 102.8 65.0059 102.856 65.5222C102.913 66.0386 103.107 66.5336 103.421 66.9622L111.679 78.2587C112.181 78.9454 112.955 79.4182 113.83 79.5731C114.706 79.728 115.612 79.5523 116.349 79.0847C117.086 78.6171 117.593 77.8959 117.759 77.0796C117.926 76.2634 117.737 75.4191 117.235 74.7324Z" fill="white"/>
<path d="M83.5499 118.939L69.9558 113.795C69.1299 113.482 68.2046 113.488 67.3834 113.811C66.5622 114.134 65.9123 114.748 65.5768 115.518C65.2413 116.288 65.2475 117.15 65.5942 117.915C65.9408 118.681 66.5994 119.287 67.4252 119.599L81.0193 124.744C81.8451 125.055 82.77 125.049 83.5906 124.726C84.4113 124.402 85.0607 123.789 85.3961 123.019C85.7314 122.25 85.7254 121.388 85.3792 120.623C85.033 119.858 84.3751 119.252 83.5499 118.939V118.939Z" fill="white"/>
<path d="M170.842 231.779C169.951 231.78 169.096 232.111 168.466 232.698C167.836 233.285 167.482 234.081 167.48 234.912V248.584C167.48 249.415 167.834 250.212 168.465 250.799C169.095 251.387 169.95 251.717 170.842 251.717C171.733 251.717 172.589 251.387 173.219 250.799C173.849 250.212 174.204 249.415 174.204 248.584V234.912C174.202 234.081 173.847 233.285 173.217 232.698C172.587 232.111 171.733 231.78 170.842 231.779Z" fill="white"/>
<path d="M237.651 230.252L229.393 218.955C229.144 218.615 228.826 218.324 228.457 218.099C228.088 217.873 227.675 217.718 227.241 217.641C226.808 217.564 226.362 217.568 225.93 217.652C225.498 217.735 225.088 217.898 224.723 218.129C224.358 218.361 224.046 218.657 223.804 219.001C223.562 219.345 223.395 219.73 223.312 220.134C223.23 220.538 223.234 220.954 223.324 221.357C223.414 221.759 223.588 222.142 223.836 222.482L232.094 233.778C232.423 234.228 232.873 234.59 233.398 234.829C233.923 235.068 234.506 235.175 235.089 235.14C236.061 234.513 237.027 233.869 237.974 233.208C238.189 232.729 238.272 232.208 238.216 231.692C238.159 231.175 237.965 230.68 237.651 230.252Z" fill="white"/>
<path d="M273.647 177.614L260.053 172.47C259.227 172.158 258.302 172.164 257.481 172.487C256.659 172.81 256.01 173.424 255.674 174.194C255.338 174.963 255.345 175.826 255.691 176.591C256.038 177.357 256.697 177.962 257.522 178.275L271.116 183.419C271.942 183.731 272.867 183.725 273.688 183.401C274.508 183.078 275.158 182.464 275.493 181.695C275.829 180.926 275.823 180.064 275.476 179.299C275.13 178.533 274.472 177.928 273.647 177.614V177.614Z" fill="white"/>
<path d="M116.349 218.129C115.612 217.662 114.706 217.486 113.831 217.641C112.955 217.796 112.181 218.269 111.679 218.955L103.421 230.252C103.107 230.68 102.913 231.175 102.856 231.692C102.8 232.208 102.882 232.729 103.097 233.208C104.045 233.869 105.01 234.513 105.982 235.14C106.565 235.175 107.148 235.068 107.674 234.829C108.199 234.59 108.648 234.228 108.977 233.778L117.235 222.482C117.484 222.142 117.658 221.759 117.748 221.356C117.838 220.954 117.842 220.538 117.759 220.134C117.677 219.73 117.51 219.345 117.268 219.001C117.026 218.657 116.714 218.361 116.349 218.129Z" fill="white"/>
<path d="M85.3955 174.191C85.2295 173.81 84.9846 173.463 84.6747 173.171C84.3649 172.878 83.9962 172.645 83.5898 172.485C83.1833 172.326 82.7471 172.242 82.306 172.239C81.8649 172.237 81.4276 172.315 81.019 172.47L67.4249 177.614C66.5998 177.928 65.9418 178.533 65.5956 179.299C65.2495 180.064 65.2434 180.926 65.5788 181.695C65.9141 182.464 66.5635 183.078 67.3842 183.401C68.2049 183.725 69.1297 183.731 69.9555 183.419L83.5496 178.275C84.3744 177.96 85.0317 177.354 85.3777 176.588C85.7236 175.823 85.7301 174.961 85.3955 174.191Z" fill="white"/>
<path d="M175.203 147.052C175.514 148.765 175.083 150.522 174.004 151.939C172.926 153.356 171.289 154.316 169.452 154.609L109.796 164.067C108.886 164.211 107.954 164.187 107.054 163.995C106.154 163.804 105.304 163.449 104.551 162.952C103.798 162.454 103.157 161.823 102.666 161.095C102.175 160.366 101.842 159.555 101.687 158.707C101.533 157.859 101.559 156.99 101.764 156.152C101.969 155.313 102.35 154.52 102.884 153.818C103.418 153.116 104.095 152.52 104.876 152.062C105.658 151.604 106.528 151.294 107.438 151.15L167.095 141.692C168.932 141.403 170.818 141.805 172.338 142.81C173.858 143.815 174.889 145.34 175.203 147.052Z" fill="#3F3D56"/>
<path d="M237.99 208.651C237.133 209.454 235.97 209.908 234.754 209.912C233.539 209.917 232.371 209.472 231.507 208.675L167.288 149.293C166.426 148.495 165.94 147.41 165.936 146.278C165.931 145.145 166.41 144.058 167.266 143.254C168.121 142.45 169.285 141.996 170.5 141.991C171.715 141.986 172.882 142.43 173.746 143.227L237.965 202.609C238.827 203.408 239.314 204.492 239.318 205.625C239.323 206.758 238.846 207.846 237.99 208.651Z" fill="#3F3D56"/>
<path d="M170.536 156.013C174.925 156.013 178.482 152.697 178.482 148.607C178.482 144.517 174.925 141.201 170.536 141.201C166.147 141.201 162.59 144.517 162.59 148.607C162.59 152.697 166.147 156.013 170.536 156.013Z" fill="#CCCCCC"/>
<path d="M115.803 20.1917C103.606 38.0636 84.9952 49.9242 62.044 57.716C61.5904 58.0326 61.0745 58.2628 60.5255 58.3935C59.9765 58.5242 59.4053 58.5529 58.8444 58.4778C58.2835 58.4028 57.744 58.2256 57.2566 57.9562C56.7693 57.6869 56.3436 57.3307 56.0039 56.908C43.537 41.3945 46.352 19.2227 62.8057 7.36859C66.7837 4.50765 71.3317 2.41165 76.1859 1.20225C81.0401 -0.00713944 86.1038 -0.305832 91.0828 0.323525C96.0619 0.952882 100.857 2.49775 105.19 4.86843C109.524 7.23912 113.308 10.3884 116.325 14.1334L116.67 14.5625C117.01 14.9852 117.257 15.4661 117.397 15.9777C117.537 16.4894 117.568 17.0218 117.487 17.5445C117.407 18.0672 117.217 18.57 116.928 19.0242C116.639 19.4785 116.256 19.8752 115.803 20.1917Z" fill="#C9C4C4"/>
<path d="M224.747 14.1334C227.764 10.3884 231.548 7.23911 235.882 4.86842C240.215 2.49774 245.01 0.952884 249.989 0.323527C254.968 -0.305829 260.032 -0.00714569 264.886 1.20225C269.74 2.41164 274.288 4.50765 278.266 7.36858C294.72 19.2227 297.535 41.3945 285.068 56.908C284.728 57.3307 284.303 57.6869 283.815 57.9562C283.328 58.2256 282.789 58.4028 282.228 58.4779C281.667 58.5529 281.096 58.5242 280.547 58.3935C279.998 58.2628 279.482 58.0326 279.028 57.716C257.722 50.1136 240.249 36.9576 225.269 20.1917C224.353 19.5524 223.747 18.6001 223.585 17.5445C223.422 16.4888 223.716 15.4161 224.402 14.5625L224.747 14.1334Z" fill="#C9C4C4"/>
<path d="M219.401 254.718C218.624 255.125 218.052 255.802 217.81 256.601C217.568 257.401 217.675 258.257 218.109 258.982L237.511 291.295C237.947 292.02 238.673 292.554 239.531 292.78C240.389 293.006 241.308 292.905 242.086 292.499C242.864 292.093 243.437 291.416 243.68 290.616C243.922 289.817 243.814 288.96 243.379 288.235L223.977 255.922C223.54 255.198 222.813 254.665 221.956 254.439C221.098 254.213 220.18 254.314 219.401 254.718Z" fill="#C9C4C4"/>
<path d="M117.095 255.922L97.6934 288.235C97.2582 288.96 97.1499 289.817 97.3923 290.616C97.6346 291.416 98.2078 292.093 98.9858 292.499C99.7637 292.905 100.683 293.006 101.541 292.78C102.399 292.554 103.125 292.02 103.561 291.295L122.963 258.982C123.179 258.623 123.316 258.228 123.368 257.819C123.42 257.411 123.385 256.997 123.265 256.6C123.145 256.204 122.943 255.834 122.669 255.511C122.396 255.188 122.057 254.918 121.671 254.717C121.286 254.516 120.862 254.388 120.423 254.34C119.985 254.292 119.54 254.325 119.116 254.436C118.691 254.548 118.294 254.737 117.947 254.992C117.6 255.247 117.311 255.563 117.095 255.922H117.095Z" fill="#C9C4C4"/>
<path d="M241.44 299.569C247.179 299.569 251.832 295.233 251.832 289.885C251.832 284.536 247.179 280.2 241.44 280.2C235.702 280.2 231.049 284.536 231.049 289.885C231.049 295.233 235.702 299.569 241.44 299.569Z" fill="#C9C4C4"/>
<path d="M248.775 51.7634C254.514 51.7634 259.167 47.4276 259.167 42.079C259.167 36.7305 254.514 32.3947 248.775 32.3947C243.037 32.3947 238.384 36.7305 238.384 42.079C238.384 47.4276 243.037 51.7634 248.775 51.7634Z" fill="#E6E6E6"/>
<path d="M169.925 28.9767C175.664 28.9767 180.316 24.6409 180.316 19.2923C180.316 13.9438 175.664 9.60797 169.925 9.60797C164.186 9.60797 159.534 13.9438 159.534 19.2923C159.534 24.6409 164.186 28.9767 169.925 28.9767Z" fill="#E6E6E6"/>
<path d="M94.7418 50.6241C100.481 50.6241 105.133 46.2882 105.133 40.9397C105.133 35.5912 100.481 31.2553 94.7418 31.2553C89.0029 31.2553 84.3506 35.5912 84.3506 40.9397C84.3506 46.2882 89.0029 50.6241 94.7418 50.6241Z" fill="#E6E6E6"/>
<path d="M101.465 299.569C107.204 299.569 111.857 295.233 111.857 289.885C111.857 284.536 107.204 280.2 101.465 280.2C95.7265 280.2 91.0742 284.536 91.0742 289.885C91.0742 295.233 95.7265 299.569 101.465 299.569Z" fill="#C9C4C4"/>
<path d="M233.289 203.204C233.699 203.802 234.244 204.309 234.887 204.689C235.529 205.069 236.253 205.313 237.008 205.404C237.763 205.495 238.53 205.431 239.255 205.216C239.98 205.001 240.646 204.64 241.205 204.16L257.51 212.302L256.636 203.38L241.286 197.016C240.357 196.194 239.137 195.717 237.857 195.678C236.576 195.638 235.324 196.037 234.339 196.8C233.353 197.563 232.702 198.636 232.508 199.816C232.315 200.997 232.593 202.202 233.289 203.204H233.289Z" fill="#FFB7B7"/>
<path d="M245.17 206.318L251.56 198.098L282.342 211.66L320.647 204.961C322.54 204.63 324.488 204.692 326.354 205.142C328.219 205.591 329.955 206.418 331.438 207.563C332.922 208.708 334.117 210.144 334.938 211.768C335.759 213.392 336.187 215.165 336.191 216.96C336.193 220.203 334.816 223.314 332.36 225.612C329.904 227.909 326.571 229.204 323.091 229.214L279.194 229.29L245.17 206.318Z" fill="#3F3D56"/>
<path d="M235.329 348.295L228.864 345.413L237.745 320.229L247.285 324.482L235.329 348.295Z" fill="#FFB7B7"/>
<path d="M278.67 344.235C278.2 344.509 277.73 344.779 277.255 345.049C276.31 345.589 275.355 346.12 274.401 346.642C273.921 346.903 273.437 347.164 272.957 347.421V347.434L272.929 347.439L272.919 347.443L272.188 347.611L271.139 345.027L270.654 343.836L269.97 342.15L268.717 339.066L262.116 322.824L272.378 320.465L272.763 321.93H272.767L272.957 322.655L276.542 336.207L277.274 338.977L277.297 339.061L277.739 340.716L278.119 342.15L278.542 343.752L278.67 344.235Z" fill="#FFB7B7"/>
<path d="M339.885 287.197C339.234 288.17 338.57 289.139 337.9 290.1C336.656 291.888 335.379 293.649 334.068 295.384C334.068 295.388 334.063 295.388 334.058 295.393C333.294 296.053 332.449 296.628 331.542 297.105C331.504 297.132 331.461 297.15 331.423 297.172C330.755 297.516 330.043 297.782 329.305 297.964C329.039 298.026 328.769 298.088 328.503 298.15C327.543 298.362 326.594 298.544 325.649 298.703C323.968 298.982 322.306 299.181 320.653 299.305C320.52 299.318 320.387 299.327 320.254 299.336C313.459 299.801 306.844 299.053 299.94 297.827C296.53 297.225 293.05 296.504 289.445 295.756C288.268 295.508 287.085 295.264 285.889 295.021C285.798 295.003 285.704 294.981 285.609 294.964C283.899 294.614 282.161 294.269 280.38 293.928C278.139 293.499 275.826 293.083 273.424 292.689L273.595 295.844C273.737 298.272 274.278 300.664 275.2 302.938C276.225 305.735 277.037 307.948 275.323 312.555L274.497 314.786C274.925 315.893 275.072 317.078 274.926 318.248C274.78 319.417 274.346 320.539 273.656 321.526L273.49 321.76L280.38 338.007L280.827 339.06H277.298L272.958 339.065H265.603L254.99 319.22L254.481 318.273V318.224L255.578 280.089C255.593 279.753 255.621 279.412 255.669 279.076C255.862 277.547 256.38 276.069 257.193 274.728C258.006 273.388 259.097 272.212 260.403 271.269C261.654 270.357 263.087 269.687 264.619 269.297C266.151 268.906 267.751 268.803 269.326 268.994L272.958 269.432L280.38 270.326L285.608 270.959L285.713 270.972L301.132 272.831L302.238 268.627L302.442 268.556L308.934 266.339L331.385 258.669L331.442 258.651L332.919 258.147L333.095 258.412C333.147 258.492 333.199 258.572 333.246 258.651C334.706 261.09 335.895 263.662 336.794 266.325C338.305 270.677 339.55 275.105 340.521 279.589C340.564 279.784 340.602 279.961 340.635 280.12L340.65 280.169C340.664 280.244 340.673 280.293 340.678 280.306C341.196 282.315 340.835 284.767 339.885 287.197Z" fill="#2F2E41"/>
<path d="M340.832 273.143C340.761 272.859 340.671 272.572 340.576 272.293C339.822 270.181 338.944 268.11 337.945 266.088C336.824 263.787 335.481 261.322 333.88 258.653C333.106 257.361 332.274 256.017 331.383 254.621C330.936 253.922 330.472 253.21 329.991 252.484C329.972 252.45 329.952 252.418 329.93 252.387L329.792 252.174L307.578 254.945L299.306 255.976L298.812 259.817L298.693 260.769C298.688 260.769 298.688 260.769 298.693 260.773L298.361 263.366V263.371L297.919 266.796L297.881 266.792L285.606 265.309L272.956 263.782L266.161 262.964C264.586 262.772 262.986 262.875 261.454 263.266C259.922 263.656 258.489 264.327 257.238 265.238C255.932 266.182 254.841 267.358 254.029 268.698C253.216 270.039 252.697 271.516 252.504 273.045C252.461 273.355 252.432 273.674 252.418 273.988L246.008 288.145C242.171 296.612 239.729 305.57 238.761 314.717L234.06 328.724L234.73 328.781L244.692 329.644L247.323 329.874L253.116 321.992C253.776 321.094 254.403 320.169 254.987 319.222C255.949 317.675 256.804 316.073 257.547 314.425L270.078 286.632C271.047 286.787 272.006 286.934 272.956 287.074C277.348 287.738 281.565 288.28 285.606 288.699C298.745 290.066 310.123 290.172 320.252 289.013C323.096 288.69 325.846 288.265 328.5 287.738C329.474 287.548 330.435 287.343 331.383 287.123C331.606 287.074 331.824 287.026 332.043 286.973C334.005 286.501 335.809 285.578 337.29 284.288C338.771 282.999 339.881 281.384 340.519 279.591C341.28 277.513 341.389 275.276 340.832 273.143Z" fill="#2F2E41"/>
<path d="M237.394 344.182L230.399 341.058L229.302 340.567L227.55 344.576L215.318 347.086C214.713 347.209 214.166 347.51 213.758 347.943C213.349 348.377 213.1 348.921 213.047 349.496C212.994 350.071 213.14 350.647 213.463 351.139C213.786 351.631 214.269 352.015 214.843 352.232L226.795 356.778L230.589 353.596L229.658 357.866L234.16 359.579L239.094 344.944L237.394 344.182Z" fill="#2F2E41"/>
<path d="M280.38 338.007L280.827 339.06H280.38V338.007Z" fill="#2F2E41"/>
<path d="M277.944 339.285L270.615 341.652L269.464 342.022L271.247 346.02L264.449 355.825C264.112 356.309 263.951 356.881 263.988 357.457C264.025 358.033 264.259 358.583 264.656 359.027C265.052 359.47 265.59 359.784 266.191 359.922C266.793 360.06 267.425 360.015 267.997 359.794L279.922 355.185L280.215 350.436L282.778 354.081L287.27 352.346L279.727 338.711L277.944 339.285Z" fill="#2F2E41"/>
<path d="M339.005 279.554C338.569 279.554 338.141 279.455 337.756 279.266L299.08 260.431L298.633 258.726L297.791 253.33L297.802 253.28L301.48 237.475C301.413 237.339 301.272 237.117 301.113 236.865C299.471 234.272 294.473 226.381 304.011 215.514L320.756 197.319L335.128 196.743L335.292 196.935C339.135 201.431 341.727 206.741 342.837 212.395C343.947 218.049 343.541 223.871 341.655 229.343L340.159 254.532L341.764 259.619C342.702 262.608 342.547 265.804 341.323 268.702L341.691 276.939C341.705 277.276 341.646 277.613 341.518 277.929C341.389 278.245 341.194 278.534 340.943 278.778C340.693 279.022 340.392 279.217 340.059 279.35C339.726 279.483 339.367 279.553 339.005 279.554L339.005 279.554Z" fill="#3F3D56"/>
<path d="M305.456 300.328C306.111 299.967 306.674 299.477 307.104 298.892C307.533 298.306 307.82 297.64 307.944 296.941C308.068 296.241 308.026 295.524 307.821 294.841C307.615 294.159 307.252 293.526 306.756 292.988L316.054 278.084L306.457 278.588L299.098 292.664C298.184 293.501 297.631 294.621 297.543 295.812C297.456 297.003 297.841 298.183 298.625 299.128C299.408 300.072 300.537 300.716 301.796 300.938C303.055 301.159 304.357 300.942 305.456 300.328L305.456 300.328Z" fill="#FFB7B7"/>
<path d="M309.208 289.371L300.616 283.133L316.229 254.934L310.379 219.023C310.09 217.248 310.223 215.435 310.77 213.714C311.317 211.992 312.264 210.404 313.544 209.062C314.824 207.72 316.405 206.657 318.175 205.949C319.945 205.24 321.861 204.903 323.786 204.962C327.264 205.073 330.552 206.464 332.93 208.832C335.308 211.199 336.581 214.349 336.471 217.59L335.025 258.479L309.208 289.371Z" fill="#3F3D56"/>
<path d="M311.538 189.759V176.505C311.534 171.794 313.539 167.275 317.111 163.943C320.682 160.61 325.528 158.736 330.582 158.733C335.636 158.73 340.485 160.598 344.061 163.926C347.637 167.255 349.648 171.771 349.651 176.482V176.505C353.01 183.028 350.909 186.129 349.651 189.759C349.65 190.391 349.38 190.997 348.901 191.444C348.421 191.891 347.771 192.143 347.093 192.144H314.098C313.419 192.143 312.769 191.891 312.289 191.444C311.809 190.997 311.539 190.391 311.538 189.759Z" fill="#2F2E41"/>
<path d="M324.346 191.282C332.224 191.282 338.611 185.33 338.611 177.988C338.611 170.646 332.224 164.693 324.346 164.693C316.468 164.693 310.082 170.646 310.082 177.988C310.082 185.33 316.468 191.282 324.346 191.282Z" fill="#FFB7B7"/>
<path d="M339.275 181.473C339.146 181.454 339.016 181.429 338.887 181.41C336.662 181.042 334.437 180.68 332.219 180.306L332.014 175.62L329.327 179.818C323.196 181.714 317.46 180.642 312.064 178.277C310.284 177.489 308.557 176.602 306.892 175.62C307.345 173.028 308.415 170.563 310.022 168.406C311.629 166.249 313.733 164.454 316.18 163.152C316.384 163.044 316.582 162.949 316.786 162.854C316.787 162.854 316.788 162.854 316.789 162.853C316.789 162.853 316.79 162.853 316.791 162.852C316.791 162.851 316.792 162.851 316.792 162.85C316.793 162.849 316.793 162.848 316.793 162.847C317.14 162.695 317.494 162.549 317.847 162.416C320.618 161.407 323.638 161.152 326.558 161.679C329.478 162.207 332.177 163.496 334.342 165.397C338.696 169.272 340.656 175.67 339.275 181.473Z" fill="#2F2E41"/>
</svg>
