<svg width="514" height="374" viewBox="0 0 514 374" fill="none" xmlns="http://www.w3.org/2000/svg">
<path d="M433.985 259.726C433.453 259.114 433.056 258.388 432.823 257.599C432.589 256.81 432.525 255.977 432.634 255.159C432.743 254.342 433.023 253.559 433.455 252.866C433.886 252.173 434.458 251.587 435.131 251.15L430.828 231.588L440.214 235.242L442.861 253.258C443.492 254.482 443.671 255.905 443.362 257.257C443.053 258.61 442.278 259.797 441.184 260.594C440.09 261.391 438.753 261.743 437.426 261.583C436.099 261.423 434.875 260.762 433.985 259.726Z" fill="#FFB8B8"/>
<path d="M433.336 244.201L425.085 227.601L426.201 185.803L426.731 186.966C427.349 188.32 441.825 220.212 440.793 230.888L442.448 240.645L433.336 244.201Z" fill="#DE8EE4"/>
<path d="M427.956 366.876H434.572L437.719 340.321L427.955 340.321L427.956 366.876Z" fill="#FFB8B8"/>
<path d="M426.269 364.628L439.298 364.628C441.5 364.628 443.612 365.538 445.169 367.158C446.726 368.778 447.601 370.976 447.601 373.268V373.548L426.269 373.549L426.269 364.628Z" fill="#808080"/>
<path d="M362.59 361.643L368.964 363.488L378.833 338.781L369.426 336.059L362.59 361.643Z" fill="#FFB8B8"/>
<path d="M361.543 359.008L374.095 362.64C376.216 363.254 378.017 364.72 379.1 366.715C380.183 368.71 380.46 371.071 379.87 373.279L379.798 373.549L359.246 367.603L361.543 359.008Z" fill="#808080"/>
<path d="M421.36 356.523L408.009 257.04L379.171 355.961L356.497 347.903L388.995 215.445L389.209 215.43L423.253 212.965L447.85 348.483L421.36 356.523Z" fill="#B175B6"/>
<path d="M417.829 168.567C417.829 168.567 405.418 161.828 388.69 164.636C388.69 164.636 379.786 186.99 388.69 195.889L391.118 218.265C391.118 218.265 413.782 232.304 421.337 216.018L420.258 197.487C420.258 197.487 425.654 188.599 421.337 182.093C418.749 178.118 417.515 173.357 417.829 168.567Z" fill="#FFF5F5"/>
<path d="M419.402 270.344L421.58 223.304L415.415 167.344L415.698 167.3C423.785 166.031 426.379 180.53 426.486 181.147L440.562 263.97L419.402 270.344Z" fill="#DE8EE4"/>
<path d="M391.957 270.835L367.072 267.957L367.079 267.674C367.167 263.84 369.309 173.699 375.31 167.315C381.348 160.893 392.74 163.672 393.222 163.794L393.462 163.854L391.415 201.997L391.957 270.835Z" fill="#DE8EE4"/>
<path d="M396.541 216.96C395.787 217.217 394.988 217.299 394.201 217.201C393.413 217.102 392.656 216.825 391.982 216.389C391.309 215.952 390.735 215.368 390.302 214.676C389.869 213.985 389.587 213.202 389.476 212.385L370.553 208.527L377.575 201.087L394.468 205.892C395.8 205.789 397.122 206.197 398.184 207.041C399.245 207.884 399.973 209.103 400.228 210.468C400.484 211.832 400.249 213.246 399.57 214.443C398.89 215.639 397.812 216.535 396.541 216.96Z" fill="#FFB8B8"/>
<path d="M386.443 212.444L380.277 211.064C371.174 213.913 355.285 203.884 348.863 199.429C347.655 198.591 347.263 196.93 347.698 194.493C348.341 191.085 350.146 188.033 352.781 185.902L375.398 167.24L381.106 166.247L382.802 176.246L368.392 192.352L389.604 204.367L386.443 212.444Z" fill="#DE8EE4"/>
<path d="M384.004 156.171V143.205C384.004 137.719 386.098 132.458 389.825 128.579C393.553 124.7 398.608 122.521 403.88 122.521C409.151 122.521 414.207 124.7 417.934 128.579C421.661 132.458 423.755 137.719 423.755 143.205V156.171C423.755 156.907 423.473 157.614 422.973 158.135C422.472 158.655 421.793 158.948 421.086 158.949H386.674C385.966 158.948 385.287 158.655 384.787 158.135C384.286 157.614 384.005 156.907 384.004 156.171Z" fill="#2F2E41"/>
<path d="M403.081 158.822C411.129 158.822 417.653 152.032 417.653 143.657C417.653 135.282 411.129 128.492 403.081 128.492C395.033 128.492 388.509 135.282 388.509 143.657C388.509 152.032 395.033 158.822 403.081 158.822Z" fill="#FFB8B8"/>
<path d="M388.109 143.599C387.969 143.431 387.866 143.235 387.806 143.023C387.747 142.81 387.731 142.587 387.761 142.368L389.488 129.859C389.522 129.605 389.617 129.363 389.763 129.156C389.91 128.949 390.103 128.784 390.327 128.674C399.138 124.383 408.072 124.378 416.883 128.658C417.117 128.773 417.318 128.95 417.467 129.17C417.615 129.39 417.706 129.647 417.731 129.915L418.883 142.44C418.903 142.654 418.879 142.871 418.814 143.075C418.749 143.279 418.643 143.467 418.504 143.626C418.365 143.785 418.196 143.912 418.007 143.999C417.818 144.086 417.613 144.131 417.407 144.131H414.484C414.202 144.13 413.926 144.046 413.688 143.889C413.45 143.731 413.26 143.506 413.14 143.24L411.879 140.428C411.797 140.246 411.661 140.097 411.491 140.002C411.32 139.908 411.125 139.874 410.934 139.905C410.743 139.936 410.568 140.031 410.433 140.175C410.299 140.32 410.213 140.506 410.189 140.705L409.94 142.779C409.895 143.152 409.721 143.495 409.45 143.744C409.179 143.993 408.83 144.131 408.469 144.131H389.23C389.017 144.131 388.807 144.084 388.614 143.992C388.42 143.9 388.248 143.766 388.109 143.599Z" fill="#2F2E41"/>
<path d="M326.912 24.9232H0V236.771H326.912V24.9232Z" fill="#4C484D"/>
<path d="M81.7961 65.735H21.9221V106.235H81.7961V65.735Z" fill="white"/>
<path d="M156.194 65.735H96.3201V106.235H156.194V65.735Z" fill="white"/>
<path d="M230.592 65.735H170.718V106.235H230.592V65.735Z" fill="white"/>
<path d="M304.99 65.735H245.116V106.235H304.99V65.735Z" fill="white"/>
<path d="M81.7961 123.058H21.9221V163.559H81.7961V123.058Z" fill="white"/>
<path d="M156.194 123.058H96.3201V163.559H156.194V123.058Z" fill="white"/>
<path d="M230.592 123.058H170.718V163.559H230.592V123.058Z" fill="white"/>
<path d="M304.99 123.058H245.116V163.559H304.99V123.058Z" fill="white"/>
<path d="M81.7961 180.382H21.9221V220.882H81.7961V180.382Z" fill="white"/>
<path d="M156.194 180.382H96.3201V220.882H156.194V180.382Z" fill="white"/>
<path d="M230.592 180.382H170.718V220.882H230.592V180.382Z" fill="white"/>
<path d="M304.99 180.382H245.116V220.882H304.99V180.382Z" fill="white"/>
<path d="M85.6198 49.8465C90.5799 49.8465 94.6009 45.662 94.6009 40.5003C94.6009 35.3385 90.5799 31.1541 85.6198 31.1541C80.6596 31.1541 76.6387 35.3385 76.6387 40.5003C76.6387 45.662 80.6596 49.8465 85.6198 49.8465Z" fill="white"/>
<path d="M234.107 49.8464C239.068 49.8464 243.089 45.662 243.089 40.5002C243.089 35.3385 239.068 31.1541 234.107 31.1541C229.147 31.1541 225.126 35.3385 225.126 40.5002C225.126 45.662 229.147 49.8464 234.107 49.8464Z" fill="white"/>
<path d="M89.2122 0H82.0273V42.9926H89.2122V0Z" fill="#E6E6E6"/>
<path d="M237.7 0H230.515V42.9926H237.7V0Z" fill="#E6E6E6"/>
<path d="M288.593 85.9851C288.59 89.3688 287.413 92.6376 285.28 95.191C283.146 97.7444 280.199 99.4109 276.98 99.8842C273.76 100.357 270.485 99.6058 267.755 97.7673C265.025 95.9288 263.025 93.127 262.121 89.8767C261.218 86.6263 261.472 83.1458 262.836 80.0746C264.201 77.0034 266.585 74.5479 269.55 73.1591C272.515 71.7704 275.862 71.5419 278.976 72.5154C282.09 73.4889 284.762 75.5992 286.5 78.4584C287.869 80.7101 288.595 83.3205 288.593 85.9851Z" fill="#B85BC8"/>
<path d="M286.5 78.4585L273.172 92.3257C272.335 90.9761 267.668 84.7042 267.668 84.7042C268.266 84.0752 268.904 83.4889 269.578 82.9494L273.448 88.319L284.939 76.3604C285.522 77.0068 286.045 77.7094 286.5 78.4585Z" fill="white"/>
<path d="M139.797 143.309C139.794 146.692 138.617 149.961 136.484 152.514C134.35 155.068 131.403 156.734 128.184 157.208C124.964 157.681 121.689 156.929 118.959 155.091C116.229 153.252 114.229 150.45 113.325 147.2C112.422 143.95 112.676 140.469 114.04 137.398C115.405 134.327 117.789 131.871 120.754 130.483C123.719 129.094 127.066 128.865 130.18 129.839C133.294 130.812 135.966 132.923 137.704 135.782C139.073 138.034 139.799 140.644 139.797 143.309Z" fill="#B85BC8"/>
<path d="M137.704 135.782L124.376 149.649C123.539 148.3 118.872 142.028 118.872 142.028C119.47 141.399 120.108 140.812 120.782 140.273L124.652 145.642L136.144 133.684C136.726 134.33 137.249 135.033 137.704 135.782Z" fill="white"/>
<path d="M65.3988 143.309C65.3957 146.692 64.2193 149.961 62.0859 152.515C59.9524 155.068 57.0052 156.734 53.7857 157.208C50.5661 157.681 47.2906 156.929 44.561 155.091C41.8313 153.252 39.8309 150.45 38.9273 147.2C38.0237 143.95 38.2775 140.469 39.6422 137.398C41.0069 134.327 43.3908 131.871 46.3558 130.483C49.3208 129.094 52.6678 128.865 55.7818 129.839C58.8958 130.812 61.5676 132.923 63.3063 135.782C64.6755 138.034 65.4012 140.644 65.3988 143.309Z" fill="#B85BC8"/>
<path d="M63.3062 135.782L49.9782 149.649C49.1406 148.3 44.4738 142.028 44.4738 142.028C45.0718 141.399 45.7101 140.812 46.3841 140.273L50.254 145.642L61.7455 133.684C62.3283 134.33 62.8508 135.033 63.3062 135.782Z" fill="white"/>
<path d="M513.407 374H287.357C287.199 374 287.048 373.935 286.937 373.819C286.826 373.703 286.763 373.546 286.763 373.383C286.763 373.219 286.826 373.062 286.937 372.946C287.048 372.83 287.199 372.765 287.357 372.765H513.407C513.564 372.765 513.715 372.83 513.826 372.946C513.937 373.062 514 373.219 514 373.383C514 373.546 513.937 373.703 513.826 373.819C513.715 373.935 513.564 374 513.407 374Z" fill="#3F3D56"/>
</svg>
