<svg width="454" height="330" viewBox="0 0 454 330" fill="none" xmlns="http://www.w3.org/2000/svg">
<g clip-path="url(#clip0_311_1066)">
<path opacity="0.18" d="M419.439 220.729C418.544 225.075 417.346 229.358 415.854 233.549C413.174 241.098 409.636 248.364 407.391 256.038C401.174 277.337 404.253 302.943 388.057 318.631C383.673 322.87 378.219 325.93 372.695 328.651C349.036 340.281 323.108 343.885 298.049 351.412C270.875 359.573 243.314 368.12 214.6 368.8C193.374 369.168 172.303 365.251 152.74 357.3C133.177 349.349 115.554 337.54 101.003 322.632C91.3067 312.555 82.9735 300.902 78.9891 287.697C77.4472 282.455 76.513 277.064 76.2036 271.624C75.4278 258.962 77.5199 246.006 80.0352 233.47C85.1479 207.977 92.5761 181.634 110.911 162.625C127.507 145.452 152.836 134.117 159.947 111.617C163.014 101.812 162.004 91.2137 164.531 81.2501C169.878 60.2347 190.694 45.3743 212.579 40.5909C241.809 34.2092 269.395 45.9524 292.596 62.2977C317.713 79.9125 348.025 88.4592 373.13 106.006C409.578 131.533 428.313 178.449 419.439 220.729Z" fill="#5308F3"/>
<path opacity="0.37" d="M397.595 181.906C396.7 186.253 395.503 190.536 394.01 194.726C391.331 202.276 387.793 209.541 385.548 217.215C379.33 238.514 382.41 264.12 366.213 279.808C361.829 284.047 356.376 287.108 350.852 289.828C327.192 301.458 301.264 305.063 276.206 312.589C249.032 320.751 221.47 329.297 192.756 329.977C171.53 330.346 150.459 326.428 130.896 318.478C111.333 310.527 93.7101 298.718 79.1596 283.809C69.463 273.732 61.1298 262.08 57.1454 248.874C55.6035 243.632 54.6693 238.242 54.3599 232.801C57.4013 231.569 60.3404 230.114 63.1514 228.448C83.9785 215.651 100.433 194.522 125.644 189.444C139.02 186.746 152.912 189.297 166.123 192.675C186.774 197.957 206.896 205.279 227.911 209.02C248.926 212.761 271.469 212.647 290.651 203.568C299.16 199.533 306.741 193.865 315.133 189.626C340.086 176.976 369.222 178.041 397.595 181.906Z" fill="#AE2889"/>
<path d="M182.319 248.398H182.12C173.892 247.73 165.853 246.551 157.567 247.503C154.887 247.809 152.043 248.387 150.174 250.257C148.305 252.128 148.082 255.698 150.385 257.058L134.166 267.43C132.297 268.62 130.228 270.128 130.087 272.281C129.911 274.9 132.626 276.816 135.153 277.779C146.495 282.245 159.4 279.831 171.201 276.645C183.001 273.46 195.084 269.482 207.225 271.069C211.821 271.669 216.275 273.052 220.882 273.676C225.928 274.193 231.012 274.246 236.068 273.834C258.811 272.701 282.036 271.42 303.145 263.213C306.642 261.936 309.972 260.266 313.065 258.237C315.222 256.688 317.268 254.999 319.188 253.182L326.24 246.879C328.132 245.179 330.013 243.479 331.811 241.688C339.049 234.514 344.759 226.042 348.619 216.751C349.441 214.79 350.135 212.466 348.983 210.675C348.361 209.813 347.524 209.115 346.55 208.646C338.954 204.377 330.133 202.588 321.398 203.545C317.895 203.844 314.498 204.856 311.431 206.515C308.807 208.218 306.373 210.178 304.167 212.364C286.02 228.732 262.219 237.709 239.03 246.369C231.813 249.044 224.22 251.776 216.557 250.824C211.104 250.155 205.979 247.639 200.584 246.891C194.108 245.95 188.584 248.829 182.319 248.398Z" fill="url(#paint0_linear_311_1066)"/>
<path d="M311.56 144.194C309.474 144.717 307.32 144.943 305.166 144.863C303.145 144.477 301.213 143.74 299.466 142.687C294.764 140.227 289.722 137.903 284.362 137.507C279.003 137.11 273.126 138.992 270.258 143.378C268.86 145.498 268.272 148.003 267.285 150.327C265.388 154.343 262.747 157.993 259.492 161.095C248.432 172.51 234.739 181.328 223.762 192.833C222.581 194.217 221.208 195.437 219.683 196.461C218.448 197.134 217.134 197.663 215.769 198.036C199.038 203.217 181.555 205.781 163.984 205.631C168.603 208.952 174.797 209.031 180.439 210.471C189.277 212.738 196.764 218.406 205.391 221.353C213.09 223.982 221.411 224.334 229.58 224.288C240.505 224.231 251.417 223.53 262.254 222.191C263.972 222.032 265.66 221.651 267.273 221.058C269.228 220.12 271.007 218.875 272.538 217.374C281.847 209.179 291.262 200.893 298.243 190.77C300.535 187.438 302.557 183.969 305.084 180.773C309.303 175.502 314.851 171.285 318.788 165.822C320.596 163.081 322.24 160.242 323.713 157.32C325.029 154.963 328.508 151.596 329.143 149.204C330.8 143.152 315.685 143.526 311.56 144.194Z" fill="#F5FDFF"/>
<path d="M276.582 196.71C276.799 195.975 277.267 195.332 277.91 194.885C278.661 194.609 279.481 194.561 280.261 194.749C283.32 195.166 286.437 194.617 289.146 193.185C290.487 192.46 291.656 191.472 292.577 190.285C293.498 189.098 294.151 187.738 294.494 186.293C294.694 185.318 294.741 184.321 295.035 183.38C295.624 182.011 296.416 180.732 297.385 179.583C299.691 176.362 301.224 172.688 301.875 168.826C302.51 165.13 302.392 161.118 304.543 158.001C305.295 156.924 306.295 156.006 306.988 154.883C307.38 154.348 307.62 153.724 307.686 153.072C307.752 152.421 307.641 151.763 307.364 151.165C306.99 150.577 306.484 150.077 305.883 149.703C302.091 147.121 297.594 145.674 292.954 145.543C292.308 145.498 291.659 145.567 291.039 145.747C290.18 146.113 289.441 146.697 288.899 147.436C285.808 151.097 284.069 155.631 281.542 159.667C275.971 168.599 266.721 174.981 261.244 183.958C259.603 186.777 258.219 189.728 257.106 192.777C255.286 197.582 253.825 202.506 252.734 207.512C252.579 208.105 252.512 208.715 252.534 209.326C252.778 210.598 253.502 211.737 254.568 212.523C256.714 214.298 259.339 215.449 262.137 215.844C264.664 216.139 266.11 214.574 267.638 212.806C271.669 208.068 274.219 202.344 276.582 196.71Z" fill="url(#paint1_linear_311_1066)"/>
<path d="M268.437 120.606C264.57 120.039 261.067 118.169 257.377 116.945C255.29 116.071 252.952 115.935 250.771 116.559C249.352 117.178 248.245 118.314 247.694 119.719C247.144 121.124 247.193 122.682 247.833 124.052L247.915 124.233C248.914 125.68 250.266 126.867 251.853 127.69C261.23 133.426 271.273 138.079 281.777 141.553C285.345 142.786 289.013 143.73 292.743 144.376C295.969 144.919 299.262 144.988 302.51 144.58C306.903 143.89 311.105 142.347 314.863 140.046C316.596 139.232 317.989 137.873 318.812 136.192C319.682 133.789 318.318 131.204 316.814 129.119C314.572 125.846 311.66 123.049 308.257 120.901C304.931 119.109 301.375 117.748 297.679 116.854C294.941 116.061 293.836 116.729 291.473 117.602C289.111 118.475 286.325 118.169 283.963 118.645C278.886 119.631 273.714 121.365 268.437 120.606Z" fill="#EDC5DD"/>
<path d="M268.429 120.536C264.563 119.969 261.06 118.099 257.369 116.875C255.283 116.001 252.944 115.865 250.764 116.489C249.345 117.108 248.238 118.244 247.687 119.649C247.136 121.054 247.186 122.612 247.826 123.982L247.908 124.163C248.906 125.61 250.259 126.797 251.845 127.62C261.222 133.357 271.266 138.009 281.77 141.483C285.337 142.716 289.005 143.66 292.735 144.306C295.962 144.849 299.255 144.918 302.503 144.51C306.896 143.82 311.098 142.277 314.855 139.976C316.588 139.162 317.982 137.803 318.805 136.122C319.674 133.719 318.311 131.134 316.807 129.049C314.565 125.776 311.653 122.979 308.25 120.831C304.924 119.039 301.367 117.678 297.672 116.784C294.933 115.991 293.829 116.659 291.466 117.532C289.104 118.405 286.318 118.099 283.956 118.575C278.878 119.561 273.707 121.295 268.429 120.536Z" fill="url(#paint2_linear_311_1066)"/>
<path d="M288.57 126.183C290.641 127.368 292.473 128.904 293.977 130.717C294.729 131.62 295.261 132.675 295.531 133.803C295.802 134.932 295.805 136.105 295.54 137.235C295.094 138.742 294.036 140.046 293.777 141.587C293.401 143.786 294.717 145.906 296.128 147.652C297.538 149.397 299.219 151.052 299.748 153.319C300.038 154.654 299.88 156.044 299.297 157.287C298.714 158.53 297.736 159.562 296.504 160.234C293.166 161.968 289.052 160.585 285.632 159.009C282.212 157.434 278.486 155.609 274.819 156.538C272.75 157.071 271.023 158.42 269.107 159.327C265.711 160.877 261.845 161.179 258.235 160.177C254.643 159.147 251.435 157.14 248.997 154.396C247.114 152.476 245.884 150.048 245.471 147.436C245.303 146.133 245.507 144.811 246.062 143.612C246.618 142.413 247.502 141.384 248.621 140.635C250.971 139.23 254.004 139.592 256.777 139.864C259.551 140.136 262.654 140.182 264.723 138.368C267.073 136.35 267.073 132.927 268.249 130.161C269.225 128.033 270.914 126.282 273.046 125.191C275.177 124.099 277.627 123.73 280.002 124.142C281.953 124.539 283.799 125.469 285.785 125.593C287.771 125.718 290.016 125.027 291.838 125.922" fill="#473F47"/>
<path d="M174.985 256.9L175.726 257.319C176.319 257.648 177.015 257.761 177.687 257.639C178.36 257.516 178.965 257.165 179.393 256.65L270.329 146.813C270.801 146.246 271.02 145.522 270.938 144.799C270.857 144.076 270.481 143.415 269.894 142.959C269.306 142.512 268.56 142.307 267.816 142.388C267.072 142.468 266.392 142.828 265.921 143.39L174.245 252.819C173.77 253.383 173.547 254.106 173.624 254.828C173.701 255.55 174.073 256.214 174.656 256.673C174.761 256.755 174.871 256.83 174.985 256.9Z" fill="#473F47"/>
<path d="M257.612 249.861L258.881 248.047C259.269 247.197 258.176 245.474 257.282 245.032L165.841 199.26C165.356 199.02 164.796 198.962 164.269 199.095C163.741 199.229 163.284 199.547 162.985 199.986L160.893 202.06C160.766 202.251 160.68 202.464 160.638 202.686C160.597 202.909 160.602 203.137 160.652 203.358C160.702 203.58 160.797 203.789 160.931 203.975C161.065 204.16 161.236 204.319 161.433 204.441L161.61 204.543L252.428 249.759C253.51 250.269 257.13 250.915 257.612 249.861Z" fill="#473F47"/>
<path d="M286.067 149.851C287.63 153.546 292.696 154.487 295.352 157.536C297.573 160.075 297.808 163.815 296.774 166.989C293.812 176.057 285.256 180.591 277.581 185.511C272.632 188.651 267.79 192.516 265.698 197.855C264.523 200.893 264.111 204.52 261.467 206.526C259.699 207.667 257.598 208.232 255.472 208.136C254.455 208.189 253.434 208.105 252.44 207.887C250.669 207.339 249.024 206.465 247.598 205.313L241.721 201.131C239.941 200.036 238.026 199.16 236.021 198.524C234.081 197.742 231.989 196.823 231.025 195.021C229.85 192.754 230.849 189.932 232.283 187.767C237.055 180.569 245.635 176.318 250.371 169.086C250.745 168.606 250.98 168.039 251.053 167.443C251.051 166.949 250.951 166.461 250.759 166.003C249.443 161.866 249.502 153.421 255.461 152.65C256.431 152.571 257.406 152.571 258.376 152.65C263.136 152.82 268.19 151.8 271.692 148.672C272.127 148.286 272.139 147.867 272.397 147.425C272.656 146.983 273.103 146.643 273.361 146.201C273.88 145.242 274.214 144.202 274.348 143.129C274.479 141.455 274.71 139.789 275.042 138.141C276.147 134.265 281.471 129.889 284.962 134.287C288.453 138.685 283.998 144.965 286.067 149.851Z" fill="#FFB79C"/>
<path d="M262.407 161.855C262.572 161.764 262.772 161.616 262.701 161.435C262.669 161.364 262.61 161.307 262.537 161.276C262.221 161.131 261.877 161.05 261.527 161.038C261.177 161.027 260.829 161.085 260.503 161.208C259.851 161.45 259.178 161.64 258.493 161.775C257.574 161.842 256.657 161.615 255.884 161.129C255.126 160.64 254.421 160.078 253.78 159.451C253.942 160.456 254.309 161.419 254.862 162.285C255.39 163.339 256.037 168.043 258.023 166.581C258.775 166.026 259.128 164.79 259.728 164.065C260.466 163.17 261.376 162.419 262.407 161.855Z" fill="#EA967D"/>
<path d="M254.485 188.991C252.452 189.082 250.348 189.376 248.432 188.741C247.667 188.46 246.935 188.103 246.246 187.676C242.299 185.364 238.546 182.756 235.021 179.877C236.961 178.665 239.547 178.937 241.603 177.928C242.174 177.55 242.811 177.278 243.484 177.123C244.504 177.175 245.471 177.577 246.211 178.256C247.872 179.376 249.758 180.148 251.747 180.523C251.174 179.374 250.718 178.175 250.383 176.942C250.088 176.021 250.02 175.047 250.183 174.096C250.419 173.362 250.836 172.693 251.4 172.148C251.963 171.603 252.654 171.198 253.416 170.968C254.939 170.528 256.528 170.332 258.117 170.39C258.913 170.322 259.716 170.422 260.468 170.685C261.113 171.021 261.675 171.489 262.113 172.056C265.301 175.741 269.073 178.917 273.291 181.464C273.876 181.745 274.414 182.108 274.889 182.541C275.128 182.758 275.305 183.03 275.406 183.331C275.507 183.633 275.527 183.953 275.465 184.264C275.336 184.61 275.14 184.929 274.889 185.205C273.502 186.928 272.162 188.685 270.728 190.385C269.483 191.859 268.742 192.176 266.944 191.428C263.035 189.719 258.776 188.886 254.485 188.991Z" fill="#EA967D"/>
<path d="M188.666 183.029L160.705 242.334L150.996 252.762C150.996 252.762 147.247 254.893 148.563 256.163C149.88 257.432 157.837 258.067 158.718 257.965C159.6 257.863 166.44 259.665 167.98 257.33C169.52 254.995 169.273 254.349 169.273 254.349C169.273 254.349 170.19 243.388 170.848 241.801C171.506 240.214 179.357 225.127 186.351 219.052C193.344 212.976 199.091 201.528 199.091 201.528C199.091 201.528 236.961 213.418 250.712 212.523C264.464 211.627 265.992 199.079 257.764 194.613C251.535 191.213 216.627 181.872 200.384 177.61C198.082 177.029 195.641 177.255 193.495 178.247C191.349 179.239 189.638 180.934 188.666 183.029Z" fill="#EA967D"/>
<path d="M273.937 141.939C273.937 141.939 271.457 148.876 274.431 149.193C277.404 149.511 286.501 138.096 286.349 135.908C286.196 133.721 273.937 141.939 273.937 141.939Z" fill="#EA967D"/>
<path d="M276.218 144.036L276.652 143.877C278.31 143.254 278.921 142.018 280.178 140.918C281.436 139.819 282.87 139.15 284.128 138.221C285.062 137.623 285.838 136.824 286.396 135.886C286.919 136.162 287.521 136.268 288.111 136.188C288.702 136.109 289.251 135.848 289.675 135.444C290.134 135.118 290.506 134.693 290.761 134.202C291.016 133.712 291.148 133.17 291.144 132.621C291.111 132.097 290.863 131.607 290.456 131.258C290.048 130.91 289.514 130.731 288.97 130.762H288.794C288.97 129.091 288.724 127.403 288.077 125.843C287.638 125.013 287.016 124.285 286.255 123.712C284.811 122.635 283.15 121.863 281.377 121.445C280.377 121.132 279.321 121.02 278.274 121.116C276.486 121.534 274.775 122.21 273.197 123.122C271.563 123.984 270.682 125.99 269.929 127.543C267.897 131.72 267.06 136.347 267.508 140.941C267.523 141.817 267.823 142.665 268.366 143.367C269.222 144.069 270.323 144.43 271.446 144.376C273.044 144.541 274.661 144.426 276.218 144.036Z" fill="#FFB79C"/>
<path d="M279.826 128.325C281.192 128.825 282.594 129.227 284.022 129.527L283.869 128.983C284.358 129.166 284.799 129.452 285.159 129.821C285.519 130.19 285.789 130.631 285.949 131.114C286.116 131.989 286.206 132.876 286.219 133.766C286.763 133.324 287.259 132.83 287.7 132.292C287.99 131.891 288.343 131.535 288.746 131.238C288.95 131.089 289.194 131.001 289.449 130.985C289.704 130.969 289.958 131.026 290.18 131.148C290.225 129.639 290.03 128.133 289.604 126.682C289.181 125.217 288.298 123.915 287.077 122.952C285.629 122.029 284.044 121.322 282.376 120.855C281.656 120.72 280.924 120.651 280.19 120.651C279.081 120.549 277.962 120.618 276.875 120.855C276.203 121.062 275.554 121.332 274.936 121.66C274.337 121.966 272.585 122.476 272.585 123.338C272.585 124.199 274.066 124.959 274.607 125.389C276.171 126.633 277.933 127.624 279.826 128.325Z" fill="#473F47"/>
<path d="M245.083 188.243C241.949 186.588 238.85 184.91 235.786 183.21C227.723 178.789 219.613 174.437 211.374 170.345C207.777 168.554 204.157 166.797 200.443 165.255C198.692 164.53 196.224 163.203 194.226 163.419H194.061C189.43 164.7 149.715 223.098 149.715 223.098C149.715 223.098 131.357 233.787 128.371 231.872C127.407 231.974 127.114 231.112 126.35 230.546C125.586 229.979 124.387 229.571 123.74 230.273C123.094 230.976 123.74 232.166 124.446 232.847C125.559 233.902 126.866 234.747 128.301 235.34C128.625 235.439 128.908 235.633 129.112 235.896C129.216 236.081 129.277 236.286 129.288 236.496C129.49 237.152 129.874 237.743 130.398 238.204C130.922 238.665 131.566 238.98 132.262 239.115C133.663 239.33 135.091 239.33 136.493 239.115C140.726 238.767 144.986 238.862 149.198 239.398C150.236 239.591 151.299 239.625 152.348 239.5C153.199 239.306 153.993 238.928 154.669 238.394C155.345 237.859 155.886 237.183 156.25 236.417C156.969 234.877 157.307 233.197 157.238 231.509C157.084 229.846 157.203 228.171 157.59 226.544C157.59 226.544 189.654 200.077 191.417 191.995C192.137 188.123 193.243 184.327 194.719 180.66C199.362 185.194 204.216 189.728 209.188 193.933C213.077 197.334 217.149 200.535 221.388 203.523C223.193 204.786 225.073 205.948 227.018 207.002C228.732 208.032 230.711 208.577 232.73 208.578C238.172 208.578 243.061 211.684 248.444 212.103C249.696 212.194 250.953 212.194 252.205 212.103C253.525 212.07 254.831 211.833 256.072 211.4C259.034 210.267 260.68 207.195 262.078 204.395C262.865 203.133 263.272 201.685 263.254 200.213C263.057 198.924 262.37 197.752 261.326 196.925C260.306 196.099 259.18 195.402 257.976 194.851C253.627 192.713 249.33 190.51 245.083 188.243Z" fill="#FFB79C"/>
<path d="M240.382 256.9L241.122 257.319C241.715 257.648 242.411 257.761 243.084 257.639C243.756 257.516 244.361 257.165 244.789 256.65L335.713 146.813C335.949 146.533 336.125 146.212 336.232 145.867C336.338 145.521 336.373 145.159 336.333 144.801C336.294 144.443 336.182 144.096 336.003 143.779C335.824 143.463 335.582 143.184 335.29 142.959C334.701 142.512 333.952 142.306 333.207 142.387C332.461 142.467 331.778 142.827 331.306 143.39L239.594 252.853C239.359 253.135 239.185 253.458 239.08 253.805C238.975 254.152 238.943 254.516 238.984 254.875C239.026 255.234 239.14 255.582 239.322 255.898C239.503 256.215 239.747 256.493 240.041 256.718C240.149 256.788 240.263 256.849 240.382 256.9Z" fill="#473F47"/>
<path d="M282.928 158.352C282.209 159.829 281.257 161.19 280.108 162.387C279.616 162.903 279.046 163.343 278.415 163.691C277.778 163.991 277.113 164.234 276.429 164.416C275.536 164.7 274.654 165.04 273.761 165.334C268.594 167.06 263.083 167.611 257.659 166.944C257.476 166.942 257.299 166.885 257.152 166.781C257.005 166.678 256.894 166.532 256.836 166.366C254.685 162.025 252.511 157.456 252.757 152.65C251.865 153.086 251.141 153.785 250.689 154.645C249.523 156.939 248.832 159.43 248.656 161.979C248.469 162.79 248.526 163.636 248.82 164.416C249.148 165.203 249.407 166.014 249.596 166.842C249.935 167.772 250.431 168.642 251.065 169.415C252.428 171.047 254.85 172.147 256.801 171.251C257.696 172.6 258.868 173.757 260.244 174.652C263.039 176.433 266.087 177.812 269.295 178.744C272.303 179.798 275.442 179.662 278.591 180.297C281.06 180.796 283.622 181.612 286.043 180.932C286.678 180.75 287.395 180.081 286.96 179.594C286.809 179.455 286.622 179.357 286.419 179.311C285.027 178.839 283.803 177.994 282.893 176.874C280.166 173.473 280.378 167.125 281.824 163.271C283.446 158.93 286.925 155.189 287.289 150.44C287.289 150.043 287.007 148.388 286.278 148.842C286.008 149.012 285.926 150.553 285.82 150.927C285.597 151.698 285.326 152.446 285.056 153.194C284.458 154.954 283.747 156.677 282.928 158.352Z" fill="#E868FD"/>
<path d="M236.479 183.641C236.479 183.641 250.524 195.543 265.698 197.855L266.873 195.588C266.873 195.588 240.687 187.041 238.959 180.546L236.479 183.641Z" fill="#E868FD"/>
<path d="M188.666 183.029L160.705 242.334L150.996 252.762C150.996 252.762 147.247 254.893 148.563 256.163C149.88 257.432 157.837 258.067 158.718 257.965C159.6 257.863 166.44 259.665 167.98 257.33C169.52 254.995 169.273 254.349 169.273 254.349C169.273 254.349 170.19 243.388 170.848 241.801C171.506 240.214 179.357 225.127 186.351 219.052C193.344 212.976 199.091 201.528 199.091 201.528C199.091 201.528 237.078 211.786 250.806 210.89C264.534 209.995 234.105 211.049 225.936 206.572C219.707 203.171 209.763 191.371 196.976 180.036C193.367 176.908 190.652 178.699 188.666 183.029Z" fill="#EA967D"/>
<path d="M213.055 207.841C208.894 207.841 204.721 207.218 200.573 207.626C196.424 208.034 192.192 209.587 189.724 212.863L193.25 214.892C199.515 218.508 205.956 222.191 213.137 223.461C215.895 223.883 218.679 224.126 221.47 224.186C236.056 224.787 250.948 225.32 264.958 221.443C264.241 221.636 259.833 217.861 259.081 217.34C257.059 216.036 254.991 214.79 252.887 213.622C248.674 211.271 244.299 209.2 239.794 207.422C236.021 205.926 232.036 203.817 227.982 205.087C222.892 206.662 218.473 207.921 213.055 207.841Z" fill="#68E1FD"/>
<path d="M213.055 207.841C208.894 207.841 204.721 207.218 200.573 207.626C196.424 208.034 192.192 209.587 189.724 212.863L193.25 214.892C199.515 218.508 205.956 222.191 213.137 223.461C215.895 223.883 218.679 224.126 221.47 224.186C236.056 224.787 250.948 225.32 264.958 221.443C264.241 221.636 259.833 217.861 259.081 217.34C257.059 216.036 254.991 214.79 252.887 213.622C248.674 211.271 244.299 209.2 239.794 207.422C236.021 205.926 232.036 203.817 227.982 205.087C222.892 206.662 218.473 207.921 213.055 207.841Z" fill="url(#paint3_linear_311_1066)"/>
<path d="M322.973 249.861L324.242 248.047C324.63 247.197 323.537 245.474 322.644 245.032L231.19 199.26C230.705 199.023 230.146 198.965 229.619 199.099C229.093 199.233 228.635 199.548 228.334 199.986L226.277 202.026C226.026 202.416 225.945 202.886 226.05 203.334C226.156 203.781 226.44 204.171 226.842 204.418L227.006 204.509L317.872 249.725C318.871 250.269 322.479 250.915 322.973 249.861Z" fill="#473F47"/>
<path d="M268.942 133.709C270.532 133.709 271.822 132.466 271.822 130.932C271.822 129.398 270.532 128.155 268.942 128.155C267.352 128.155 266.062 129.398 266.062 130.932C266.062 132.466 267.352 133.709 268.942 133.709Z" fill="#473F47"/>
<path d="M278.719 132.901C278.974 131.387 277.908 129.96 276.338 129.714C274.768 129.469 273.289 130.497 273.034 132.011C272.779 133.525 273.845 134.951 275.415 135.197C276.985 135.443 278.464 134.415 278.719 132.901Z" fill="#473F47"/>
<path d="M255.908 167.193C255.908 171.252 254.236 175.144 251.26 178.014C248.285 180.884 244.249 182.496 240.04 182.496C235.832 182.496 231.796 180.884 228.821 178.014C225.845 175.144 224.173 171.252 224.173 167.193V166.321C225.265 167.075 226.536 167.552 227.87 167.706C229.203 167.861 230.555 167.688 231.801 167.205C232.069 167.058 232.376 166.99 232.683 167.012C232.944 167.087 233.183 167.223 233.376 167.409C234.385 168.186 235.671 168.548 236.955 168.414C238.239 168.28 239.416 167.662 240.229 166.695C240.375 166.515 240.509 166.325 240.628 166.128C242.685 167.261 245.094 168.542 247.351 167.771C247.648 167.675 247.932 167.546 248.197 167.386C248.921 166.929 249.587 166.392 250.184 165.788C250.548 166.581 251.641 166.717 252.534 166.615C253.681 166.478 254.789 166.132 255.802 165.595C255.873 166.125 255.908 166.659 255.908 167.193Z" fill="#673535"/>
<path d="M255.825 165.572C254.813 166.109 253.704 166.455 252.558 166.593C251.665 166.695 250.571 166.593 250.207 165.765C249.421 166.615 248.455 167.291 247.375 167.749C245.118 168.52 242.673 167.284 240.652 166.105C239.999 167.178 238.932 167.957 237.685 168.271C236.438 168.586 235.112 168.41 233.999 167.783C233.79 167.664 233.59 167.531 233.4 167.386C233.206 167.201 232.968 167.064 232.706 166.989C232.399 166.968 232.092 167.035 231.825 167.182C230.579 167.666 229.227 167.838 227.893 167.683C226.56 167.529 225.288 167.052 224.197 166.298L229.697 157.74H249.337L255.825 165.572Z" fill="white"/>
<path opacity="0.18" d="M229.721 157.763H235.292L232.73 167.012C232.423 166.99 232.116 167.057 231.848 167.205C230.602 167.688 229.25 167.861 227.917 167.706C226.583 167.552 225.312 167.075 224.22 166.321L229.721 157.763Z" fill="white"/>
<path opacity="0.18" d="M255.825 165.572C254.813 166.109 253.704 166.455 252.558 166.593C251.664 166.695 250.571 166.593 250.207 165.765C249.421 166.615 248.455 167.291 247.374 167.749C245.118 168.52 242.673 167.284 240.651 166.105L239.312 157.74H249.337L255.825 165.572Z" fill="white"/>
<path opacity="0.34" d="M240.651 166.128C239.999 167.2 238.932 167.979 237.685 168.294C236.438 168.608 235.112 168.433 233.999 167.805C233.79 167.686 233.59 167.554 233.4 167.409C233.206 167.223 232.968 167.087 232.706 167.012L235.268 157.763H239.311L240.651 166.128Z" fill="#673535"/>
<path d="M239.653 159.089C245.125 159.089 249.561 158.525 249.561 157.831C249.561 157.136 245.125 156.572 239.653 156.572C234.181 156.572 229.745 157.136 229.745 157.831C229.745 158.525 234.181 159.089 239.653 159.089Z" fill="#A78E8E"/>
<path d="M239.652 158.862C244.138 158.862 247.774 158.4 247.774 157.831C247.774 157.261 244.138 156.799 239.652 156.799C235.167 156.799 231.531 157.261 231.531 157.831C231.531 158.4 235.167 158.862 239.652 158.862Z" fill="url(#paint4_linear_311_1066)"/>
<path opacity="0.13" d="M246.552 158.771L250.207 165.822C250.207 165.822 251.124 167.556 254.45 166.219L248.244 158.488L246.552 158.771Z" fill="#673535"/>
<path d="M237.819 158.839L235.28 149.749L228.957 147.391L228.463 148.128L234.411 150.395L236.867 158.805L237.819 158.839Z" fill="#584070"/>
<path d="M255.908 167.193C255.908 171.252 254.236 175.144 251.26 178.014C248.285 180.884 244.249 182.496 240.041 182.496C247.292 181.997 248.268 167.386 248.268 167.386C248.991 166.929 249.658 166.392 250.254 165.788C250.619 166.581 251.712 166.717 252.605 166.615C253.751 166.478 254.86 166.132 255.872 165.595C255.872 166.117 255.908 166.706 255.908 167.193Z" fill="url(#paint5_linear_311_1066)"/>
<path d="M243.484 154.963L243.002 156.119L241.862 158.839H241.498L242.732 155.824L243.202 154.691L243.261 154.521L243.343 154.679L243.484 154.963Z" fill="white"/>
<path d="M243.472 154.963L242.991 156.096C242.918 156.042 242.852 155.981 242.791 155.915L242.72 155.802L243.19 154.668H243.331L243.472 154.963Z" fill="url(#paint6_linear_311_1066)"/>
<path d="M247.281 155.473C247.281 155.496 247.275 155.519 247.262 155.539C247.25 155.559 247.232 155.576 247.21 155.586C247.01 155.757 246.774 155.885 246.519 155.963C246.264 156.041 245.995 156.067 245.729 156.04C245.551 156.034 245.377 155.985 245.223 155.898C245.069 155.811 244.94 155.688 244.848 155.541C244.691 155.652 244.507 155.723 244.315 155.749C244.122 155.775 243.925 155.754 243.743 155.688C243.562 155.625 243.397 155.525 243.261 155.394C243.125 155.262 243.02 155.104 242.955 154.929C242.529 155.054 242.077 155.077 241.639 154.997C241.421 154.948 241.23 154.825 241.1 154.649C240.97 154.474 240.911 154.259 240.934 154.045C240.796 154.072 240.654 154.066 240.519 154.029C240.383 153.991 240.26 153.923 240.158 153.829C239.958 153.625 239.982 153.421 239.911 153.172C239.917 153.159 239.92 153.146 239.92 153.132C239.92 153.118 239.917 153.105 239.911 153.092C239.802 152.917 239.723 152.725 239.676 152.526C239.675 152.285 239.723 152.046 239.817 151.823C241.616 152.023 243.431 152.053 245.236 151.914H245.388C245.411 151.925 245.432 151.941 245.448 151.961C245.464 151.98 245.476 152.003 245.482 152.027L246.011 153.024C246.423 153.795 246.834 154.566 247.257 155.291C247.269 155.371 247.351 155.439 247.281 155.473Z" fill="white"/>
<path d="M245.235 151.97L240.358 153.036L239.887 153.149C239.778 152.974 239.699 152.782 239.652 152.582C239.651 152.341 239.699 152.103 239.793 151.88C241.592 152.08 243.407 152.11 245.212 151.97H245.235Z" fill="#D84A4A"/>
<path d="M240.934 154.045L245.235 151.97H245.388L242.955 154.963C242.955 154.963 240.898 155.484 240.934 154.045Z" fill="#D84A4A"/>
<path d="M244.848 155.541L245.388 151.936L247.281 155.473C246.96 155.781 246.53 155.96 246.078 155.972C245.626 155.985 245.186 155.831 244.848 155.541Z" fill="#D84A4A"/>
<path d="M296.61 184.899C296.21 187.109 295.61 189.501 293.789 190.906C291.697 192.527 288.735 192.346 286.067 192.04C282.208 191.722 278.371 191.2 274.572 190.476C269.447 189.399 264.699 187.075 259.763 185.262C258.728 184.851 257.663 184.514 256.577 184.253C251.876 183.187 246.669 184.547 242.132 182.859C241.443 182.653 240.805 182.313 240.259 181.858C239.713 181.403 239.27 180.845 238.959 180.217C238.839 179.728 238.645 179.258 238.383 178.823C237.795 178.041 236.373 177.69 236.491 176.715C236.532 176.481 236.648 176.265 236.823 176.099C236.998 175.932 237.223 175.822 237.466 175.785C237.953 175.713 238.451 175.744 238.924 175.876L245.059 177.01C245.848 177.213 246.673 177.255 247.48 177.134C247.88 177.063 248.247 176.873 248.53 176.59C248.812 176.308 248.996 175.947 249.055 175.559C249.055 175.094 248.867 174.652 248.855 174.176C248.844 173.7 249.231 173.178 249.702 173.292C249.895 173.354 250.064 173.473 250.183 173.632C250.824 174.342 251.511 175.012 252.24 175.638C254.353 177.258 256.87 178.313 259.539 178.699C264.111 179.492 268.848 179.141 273.467 179.549L287.912 180.83C288.135 180.881 288.367 180.885 288.592 180.842C288.818 180.799 289.03 180.71 289.217 180.58C289.462 180.291 289.58 179.921 289.546 179.549C289.616 176.148 288.112 172.997 287.195 169.755C286.278 166.513 285.937 162.818 288.147 160.086C289.851 157.978 294.094 155.802 296.374 158.25C298.655 160.698 297.891 167.839 297.891 170.821C297.905 175.541 297.476 180.253 296.61 184.899Z" fill="#FFB79C"/>
<path d="M313.17 124.766C310.57 122.94 307.577 121.703 304.413 121.145C301.249 120.588 297.995 120.725 294.894 121.547C290.874 122.68 287.266 124.721 283.14 125.684C279.25 126.602 274.842 124.902 271.163 123.734C266.34 122.359 261.671 120.525 257.224 118.26C255.437 117.262 253.592 116.083 251.523 116.163C258.105 115.913 264.726 115.864 271.387 116.015C272.342 116.079 273.302 115.975 274.219 115.709C274.557 115.6 274.869 115.427 275.136 115.199C276.159 114.349 276.311 112.932 276.852 111.708C277.131 111.033 277.507 110.4 277.969 109.826C279.282 108.262 281.09 107.156 283.117 106.675C285.899 106.104 288.796 106.373 291.415 107.446C293.791 108.274 295.843 109.791 297.291 111.787C297.595 112.205 297.844 112.659 298.032 113.136C298.572 114.383 298.725 116.661 299.924 117.5C300.167 117.562 300.407 117.638 300.641 117.727C303.027 118.339 309.009 120.073 313.17 124.766Z" fill="#E140AA"/>
<path opacity="0.51" d="M300.241 117.647C297.871 118.328 295.404 118.646 292.931 118.588C288.254 118.896 283.555 118.641 278.944 117.829C277.51 117.523 274.572 117.194 274.243 115.72C274.581 115.612 274.893 115.438 275.159 115.21C276.182 114.36 276.335 112.943 276.875 111.719C277.172 111.041 277.568 110.407 278.051 109.838C279.579 110.189 281.036 110.756 282.541 111.152C286.549 112.195 290.768 112.048 294.929 111.889L297.42 111.798C297.724 112.217 297.973 112.67 298.161 113.147C298.702 114.394 298.854 116.673 300.053 117.511C300.112 117.562 300.175 117.608 300.241 117.647Z" fill="white"/>
</g>
<defs>
<linearGradient id="paint0_linear_311_1066" x1="193.65" y1="-5.2935" x2="308.728" y2="658.766" gradientUnits="userSpaceOnUse">
<stop offset="0.01"/>
<stop offset="0.13" stop-opacity="0.69"/>
<stop offset="0.25" stop-opacity="0.32"/>
<stop offset="1" stop-opacity="0"/>
</linearGradient>
<linearGradient id="paint1_linear_311_1066" x1="11626.8" y1="12716.4" x2="19977.8" y2="9564.26" gradientUnits="userSpaceOnUse">
<stop offset="0.01"/>
<stop offset="0.13" stop-opacity="0.69"/>
<stop offset="0.25" stop-opacity="0.32"/>
<stop offset="1" stop-opacity="0"/>
</linearGradient>
<linearGradient id="paint2_linear_311_1066" x1="18659.8" y1="6878.86" x2="18701.7" y2="3147.14" gradientUnits="userSpaceOnUse">
<stop offset="0.01" stop-color="#3AA558"/>
<stop offset="0.13" stop-opacity="0.69"/>
<stop offset="0.25" stop-opacity="0.32"/>
<stop offset="1" stop-opacity="0"/>
</linearGradient>
<linearGradient id="paint3_linear_311_1066" x1="13405.3" y1="3195.93" x2="14824.2" y2="-981.844" gradientUnits="userSpaceOnUse">
<stop offset="0.01"/>
<stop offset="0.13" stop-opacity="0.69"/>
<stop offset="0.25" stop-opacity="0.32"/>
<stop offset="1" stop-opacity="0"/>
</linearGradient>
<linearGradient id="paint4_linear_311_1066" x1="3734.8" y1="-171.62" x2="3735.08" y2="-129.732" gradientUnits="userSpaceOnUse">
<stop offset="0.01"/>
<stop offset="0.13" stop-opacity="0.69"/>
<stop offset="0.25" stop-opacity="0.32"/>
<stop offset="1" stop-opacity="0"/>
</linearGradient>
<linearGradient id="paint5_linear_311_1066" x1="4263.79" y1="2823.56" x2="3244.2" y2="2979.71" gradientUnits="userSpaceOnUse">
<stop offset="0.01"/>
<stop offset="0.13" stop-opacity="0.69"/>
<stop offset="0.25" stop-opacity="0.32"/>
<stop offset="1" stop-opacity="0"/>
</linearGradient>
<linearGradient id="paint6_linear_311_1066" x1="410.922" y1="411.265" x2="409.391" y2="405.183" gradientUnits="userSpaceOnUse">
<stop offset="0.01"/>
<stop offset="0.13" stop-opacity="0.69"/>
<stop offset="0.25" stop-opacity="0.32"/>
<stop offset="1" stop-opacity="0"/>
</linearGradient>
<clipPath id="clip0_311_1066">
<rect width="454" height="330" fill="white"/>
</clipPath>
</defs>
</svg>
