<svg width="217" height="128" viewBox="0 0 217 128" fill="none" xmlns="http://www.w3.org/2000/svg">
<path d="M155.193 51.335C155.2 58.7004 153.288 65.952 149.63 72.4387C145.972 78.9253 140.683 84.4437 134.236 88.4983C132.481 89.6094 130.647 90.6019 128.746 91.4685C127.239 92.1668 125.693 92.7835 124.113 93.3158C114.011 96.7243 102.989 96.7243 92.8869 93.3158C91.3074 92.7835 89.7606 92.1668 88.2539 91.4685C84.6903 89.8348 81.3596 87.7742 78.3424 85.3367C72.4247 80.5607 67.8467 74.4546 65.0215 67.5693C62.1963 60.6839 61.2127 53.2359 62.1596 45.8974C63.1064 38.5588 65.9539 31.5606 70.4451 25.5341C74.9363 19.5075 80.9298 14.6423 87.885 11.3775C93.4892 8.75265 99.5874 7.22415 105.821 6.88201C112.054 6.53987 118.295 7.39101 124.178 9.38528C133.253 12.4717 141.105 18.16 146.658 25.6703C152.211 33.1805 155.192 42.1451 155.193 51.335Z" fill="white"/>
<path d="M108.5 96.3895C103.118 96.3972 97.7738 95.522 92.7024 93.8022C91.1052 93.2622 89.5404 92.6386 88.0152 91.9342C86.0919 91.0575 84.2356 90.0529 82.46 88.9278C80.9018 87.949 79.4072 86.8811 77.9843 85.73C72.0002 80.9011 67.3701 74.7276 64.5116 67.766C61.6531 60.8045 60.656 53.2738 61.6103 45.8529C62.5646 38.4321 65.4402 31.3545 69.9779 25.2582C74.5155 19.1619 80.5726 14.2387 87.6029 10.9325H87.6463C93.3133 8.27857 99.4798 6.73285 105.783 6.38627C112.085 6.0397 118.397 6.89927 124.346 8.9144H124.379C132.639 11.7305 139.914 16.6845 145.389 23.2216C150.864 29.7587 154.322 37.6206 155.377 45.9267C156.432 54.2328 155.041 62.655 151.361 70.2499C147.681 77.8447 141.856 84.3122 134.54 88.9278C131.344 90.9375 127.908 92.574 124.303 93.8022C119.23 95.5226 113.884 96.3978 108.5 96.3895ZM88.1616 11.8173L88.1182 11.8432C81.2444 15.0709 75.3211 19.8801 70.8829 25.8371C66.4447 31.794 63.6312 38.7111 62.6962 45.9644C61.7612 53.2177 62.7341 60.5789 65.5272 67.3839C68.3203 74.1889 72.8457 80.2236 78.695 84.9435C80.0821 86.0634 81.5406 87.1003 83.0621 88.0482C84.7963 89.1476 86.609 90.1297 88.4871 90.9873C89.979 91.6757 91.5093 92.2855 93.0713 92.8139C103.054 96.1809 113.946 96.1809 123.929 92.8139C127.452 91.6126 130.812 90.0144 133.938 88.0533C141.087 83.5445 146.778 77.2263 150.375 69.8064C153.971 62.3866 155.331 54.1581 154.301 46.0427C153.272 37.9273 149.894 30.2456 144.546 23.858C139.198 17.4705 132.091 12.6293 124.021 9.87686H123.994C118.186 7.90879 112.025 7.06755 105.871 7.40255C99.7179 7.73755 93.6968 9.24204 88.1616 11.8276V11.8173Z" fill="#1B1C1D"/>
<path d="M111.826 56.7165H105.099V65.1148H111.826V56.7165Z" fill="#FFBC0E"/>
<path d="M111.826 65.6374H105.099C104.955 65.6374 104.817 65.5829 104.715 65.4858C104.613 65.3888 104.556 65.2572 104.556 65.1199V56.7269C104.556 56.5896 104.613 56.458 104.715 56.361C104.817 56.2639 104.955 56.2094 105.099 56.2094H111.826C111.969 56.2094 112.107 56.2639 112.209 56.361C112.311 56.458 112.368 56.5896 112.368 56.7269V65.1303C112.365 65.2657 112.307 65.3947 112.205 65.4895C112.104 65.5843 111.968 65.6374 111.826 65.6374ZM105.641 64.6025H111.283V57.2443H105.641V64.6025Z" fill="#093F68"/>
<path d="M82.422 51.2419V51.304C78.6896 50.5537 80.4256 54.9623 77.0513 53.3738C75.3858 52.6131 74.6968 56.4785 73.1453 55.5419L60.2175 33.4416C60.2175 33.4416 55.6334 29.8556 55.4164 26.782C55.1994 23.7083 58.2157 20.6657 59.8161 21.09C60.7709 21.3487 64.4002 26.8182 64.4002 26.8182C65.138 21.98 66.3912 21.9748 67.4165 22.6786C68.4418 23.3823 67.0801 30.3989 67.0801 30.3989L70.7474 35.1078L81.3316 48.7167C81.921 49.4526 82.2971 50.3235 82.422 51.2419Z" fill="#FFFA83"/>
<path d="M73.6281 56.2404C73.3519 56.2331 73.084 56.1485 72.8577 55.9972C72.7815 55.9523 72.7182 55.8901 72.6733 55.8161L59.7889 33.7934C59.1379 33.276 55.0854 29.897 54.8739 26.8337C54.7165 24.588 56.127 22.425 57.4996 21.3643C58.373 20.6916 59.2518 20.4277 59.9571 20.6191C60.798 20.8468 62.6696 23.3875 64.0964 25.4469C64.5249 23.3771 65.1163 22.306 65.9626 21.9593C66.2592 21.8566 66.5792 21.8318 66.8894 21.8873C67.1995 21.9428 67.4883 22.0767 67.7257 22.275C68.8107 23.0201 68.1705 27.5168 67.6552 30.2903L81.7602 48.4269C82.3994 49.2295 82.8105 50.176 82.9537 51.1746V51.2367C82.9649 51.3184 82.9555 51.4014 82.9263 51.4789C82.8971 51.5564 82.8489 51.6261 82.7858 51.6823C82.7227 51.7385 82.6464 51.7795 82.5633 51.8019C82.4802 51.8243 82.3927 51.8274 82.3081 51.8111C80.8488 51.5213 80.5287 52.0905 80.0838 52.8874C79.639 53.6842 78.9988 54.864 76.8288 53.8602C76.4762 53.6998 76.1778 53.9792 75.516 54.8433C75.0603 55.428 74.4473 56.2353 73.6281 56.2404ZM73.5413 55.1745C73.7691 55.2418 74.0024 55.0555 74.6263 54.2379C75.2502 53.4203 76.0531 52.3596 77.29 52.9288C78.5269 53.498 78.6896 53.1978 79.1399 52.4113C79.5359 51.7024 80.1055 50.6623 81.7547 50.7192C81.5815 50.1205 81.2906 49.5586 80.8976 49.0634L66.6407 30.7456C66.5961 30.6884 66.5645 30.623 66.5477 30.5536C66.5309 30.4841 66.5293 30.4121 66.543 30.342C67.1289 27.2373 67.4816 23.6152 67.0855 23.0977C66.657 22.8131 66.4671 22.8856 66.4074 22.9114C66.1362 23.0253 65.4472 23.6359 64.9481 26.9217C64.9327 27.0271 64.8837 27.1254 64.8077 27.2032C64.7317 27.281 64.6323 27.3346 64.5232 27.3567C64.4141 27.3788 64.3005 27.3682 64.1979 27.3265C64.0954 27.2847 64.0087 27.2139 63.9499 27.1235C62.3224 24.6552 60.2066 21.8455 59.6587 21.6075C59.388 21.6013 59.1188 21.6482 58.8678 21.7452C58.6167 21.8422 58.3893 21.9873 58.1994 22.1715C57.4899 22.7285 56.921 23.4309 56.535 24.2264C56.149 25.0218 55.9558 25.89 55.9697 26.7664C56.165 29.5814 60.5267 33.0224 60.5701 33.0587C60.6231 33.1004 60.6673 33.1513 60.7003 33.2087L73.5413 55.1745Z" fill="#1B1C1D"/>
<path d="M62.2193 31.558C62.1134 31.5584 62.0098 31.5292 61.9211 31.474C61.8324 31.4188 61.7626 31.3401 61.7202 31.2476C61.0529 29.7677 61.0204 28.5672 61.6171 27.6772C62.4743 26.3939 64.2971 26.3318 64.373 26.3266C64.5169 26.3218 64.6569 26.3717 64.7622 26.4654C64.8675 26.559 64.9295 26.6887 64.9345 26.8259C64.9396 26.9632 64.8872 27.0967 64.7891 27.1971C64.6909 27.2976 64.5549 27.3567 64.411 27.3615C64.411 27.3615 63.071 27.4184 62.5285 28.2412C62.1379 28.8259 62.203 29.6952 62.713 30.8284C62.7693 30.9541 62.7713 31.0958 62.7184 31.2228C62.6656 31.3498 62.5622 31.4517 62.4309 31.5063C62.3653 31.5384 62.293 31.5561 62.2193 31.558Z" fill="#1B1C1D"/>
<path d="M134.578 51.2419V51.304C138.31 50.5537 136.574 54.9623 139.949 53.3738C141.614 52.6131 142.303 56.4785 143.855 55.5419L156.783 33.4416C156.783 33.4416 161.367 29.8556 161.584 26.782C161.801 23.7083 158.784 20.6657 157.184 21.09C156.229 21.3487 152.6 26.8182 152.6 26.8182C151.862 21.98 150.609 21.9748 149.584 22.6786C148.558 23.3823 149.92 30.3989 149.92 30.3989L146.253 35.1078L135.668 48.7167C135.079 49.4526 134.703 50.3235 134.578 51.2419Z" fill="#FFFA83"/>
<path d="M143.372 56.2404C142.553 56.2404 141.94 55.4281 141.495 54.8433C140.833 53.974 140.535 53.6998 140.182 53.8602C138.012 54.864 137.345 53.6739 136.927 52.8874C136.509 52.1008 136.162 51.5161 134.703 51.8111C134.618 51.8274 134.531 51.8243 134.448 51.8019C134.364 51.7795 134.288 51.7385 134.225 51.6823C134.162 51.6261 134.114 51.5564 134.085 51.4789C134.055 51.4014 134.046 51.3184 134.057 51.2367V51.1746C134.201 50.1736 134.614 49.2252 135.256 48.4218L149.361 30.311C148.819 27.5374 148.2 23.0667 149.291 22.2957C149.528 22.0974 149.817 21.9635 150.127 21.908C150.437 21.8525 150.757 21.8773 151.054 21.98C151.9 22.3267 152.491 23.4185 152.92 25.4676C154.336 23.3978 156.218 20.8675 157.059 20.6398C157.77 20.4484 158.643 20.7123 159.517 21.385C160.889 22.4199 162.3 24.6087 162.142 26.8544C161.931 29.9177 157.878 33.2967 157.227 33.8141L144.305 55.8161C144.26 55.8901 144.197 55.9523 144.121 55.9972C143.9 56.1448 143.641 56.2291 143.372 56.2404ZM140.383 52.7684C141.256 52.7684 141.885 53.6015 142.374 54.2379C142.998 55.0555 143.231 55.2418 143.459 55.1745L156.316 33.2087C156.349 33.1513 156.393 33.1004 156.446 33.0586C156.49 33.0224 160.851 29.5762 161.047 26.7664C161.06 25.89 160.867 25.0218 160.481 24.2263C160.095 23.4309 159.526 22.7285 158.817 22.1715C158.625 21.9814 158.393 21.8335 158.135 21.7378C157.877 21.6422 157.601 21.6013 157.325 21.6178C156.783 21.8455 154.683 24.6552 153.05 27.1235C152.991 27.2139 152.905 27.2847 152.802 27.3265C152.699 27.3682 152.586 27.3788 152.477 27.3567C152.368 27.3346 152.268 27.281 152.192 27.2032C152.116 27.1254 152.067 27.0271 152.052 26.9217C151.553 23.6359 150.864 23.0253 150.593 22.9114C150.533 22.8856 150.343 22.8079 149.887 23.1184C149.502 23.6359 149.855 27.258 150.43 30.3265C150.444 30.3966 150.442 30.4686 150.425 30.538C150.408 30.6075 150.377 30.6729 150.332 30.7301L136.081 49.0427C135.685 49.5389 135.392 50.1027 135.218 50.7037C136.846 50.6468 137.437 51.6869 137.833 52.3958C138.283 53.1978 138.451 53.498 139.683 52.9132C139.901 52.8137 140.141 52.7641 140.383 52.7684Z" fill="#1B1C1D"/>
<path d="M154.781 31.5581C154.708 31.5593 154.636 31.5452 154.569 31.5167C154.438 31.4621 154.334 31.3602 154.282 31.2332C154.229 31.1062 154.231 30.9644 154.287 30.8388C154.797 29.6952 154.862 28.8259 154.471 28.2516C153.929 27.4288 152.605 27.3719 152.589 27.3719C152.445 27.3671 152.309 27.308 152.211 27.2075C152.113 27.1071 152.06 26.9736 152.065 26.8363C152.07 26.6991 152.132 26.5694 152.238 26.4757C152.343 26.3821 152.483 26.3322 152.627 26.337C152.703 26.337 154.526 26.4043 155.383 27.6875C155.98 28.5775 155.925 29.7573 155.28 31.2579C155.236 31.3486 155.165 31.4251 155.077 31.4784C154.988 31.5316 154.885 31.5593 154.781 31.5581Z" fill="#1B1C1D"/>
<path d="M128.686 79.9708C128.724 80.5555 128.746 81.1454 128.746 81.7456V91.4685C127.239 92.1668 125.693 92.7836 124.113 93.3158C114.011 96.7243 102.989 96.7243 92.8869 93.3158C91.3074 92.7836 89.7606 92.1668 88.2539 91.4685V81.7456C88.2539 81.1092 88.2539 80.4882 88.3244 79.8673L69.3044 54.269L83.0296 45.7776C83.0296 45.7776 100.623 61.9479 101.952 61.9479H115.048C116.404 61.9479 133.97 45.907 133.97 45.907L147.696 54.4035L128.686 79.9708Z" fill="#18234D"/>
<path d="M108.5 96.3895C103.118 96.3972 97.7738 95.522 92.7024 93.8022C91.1052 93.2622 89.5404 92.6385 88.0152 91.9342C87.9239 91.8915 87.847 91.8253 87.7933 91.7429C87.7395 91.6606 87.7112 91.5655 87.7114 91.4685V81.7456C87.7114 81.2282 87.7114 80.6331 87.771 80.0173L68.8595 54.5691C68.8175 54.5117 68.7882 54.4468 68.7733 54.3783C68.7584 54.3099 68.7582 54.2392 68.7727 54.1706C68.7866 54.1021 68.815 54.037 68.856 53.9792C68.897 53.9214 68.9499 53.8721 69.0114 53.8343L82.7366 45.3429C82.8391 45.2805 82.9605 45.2526 83.0815 45.2639C83.2025 45.2751 83.3161 45.3249 83.4039 45.405C89.9139 51.3661 100.623 60.9286 102.001 61.446H115.021C116.404 60.9699 127.135 51.4592 133.618 45.5344C133.706 45.4542 133.819 45.4045 133.94 45.3933C134.061 45.382 134.183 45.4098 134.285 45.4723L148.01 53.9688C148.072 54.0066 148.125 54.0559 148.166 54.1137C148.207 54.1715 148.235 54.2367 148.249 54.3052C148.263 54.3737 148.263 54.4444 148.248 54.5129C148.233 54.5814 148.204 54.6462 148.162 54.7036L129.261 80.1363C129.294 80.6952 129.31 81.2282 129.31 81.7611V91.484C129.31 91.581 129.282 91.6761 129.228 91.7584C129.175 91.8408 129.098 91.9071 129.006 91.9497C127.481 92.6541 125.916 93.2777 124.319 93.8177C119.24 95.5346 113.889 96.4045 108.5 96.3895ZM88.7964 91.1425C90.1896 91.7753 91.6165 92.3384 93.0713 92.8294C103.054 96.1964 113.946 96.1964 123.929 92.8294C125.383 92.3384 126.81 91.7753 128.204 91.1425V81.7456C128.204 81.1764 128.204 80.6072 128.144 80.0018C128.136 79.884 128.17 79.7672 128.242 79.6706L146.925 54.5277L134.035 46.5486C127.379 52.6286 116.399 62.4654 115.048 62.4654H101.952C100.628 62.4654 89.6318 52.5562 82.9645 46.4244L70.0747 54.3983L88.7693 79.5568C88.839 79.6559 88.8732 79.7739 88.8669 79.8931C88.8181 80.5555 88.7964 81.1609 88.7964 81.7353V91.1425Z" fill="#1B1C1D"/>
<path d="M108.5 79.0135L103.015 61.9479H113.985L108.5 79.0135Z" fill="#E7E4DF"/>
<path d="M108.5 79.5309C108.38 79.5358 108.261 79.5024 108.163 79.4359C108.065 79.3693 107.992 79.2735 107.958 79.1635L102.478 62.0876C102.454 62.0109 102.449 61.9298 102.463 61.8508C102.477 61.7718 102.51 61.697 102.56 61.6323C102.61 61.5671 102.675 61.5139 102.75 61.4771C102.826 61.4402 102.909 61.4207 102.994 61.4201H113.963C114.048 61.4207 114.131 61.4402 114.206 61.4771C114.282 61.5139 114.347 61.5671 114.397 61.6323C114.447 61.697 114.48 61.7718 114.494 61.8508C114.508 61.9298 114.503 62.0109 114.478 62.0876L108.999 79.1635C108.966 79.2667 108.901 79.3576 108.811 79.4235C108.722 79.4893 108.613 79.5269 108.5 79.5309ZM103.753 62.455L108.5 77.249L113.247 62.4654L103.753 62.455Z" fill="#0A0A0A"/>
<path d="M107.306 64.6387C123.117 64.6387 135.934 52.4134 135.934 37.3328C135.934 22.2522 123.117 10.0269 107.306 10.0269C91.4958 10.0269 78.6788 22.2522 78.6788 37.3328C78.6788 52.4134 91.4958 64.6387 107.306 64.6387Z" fill="#FFFA83"/>
<path d="M107.306 65.1562C101.537 65.1562 95.8974 63.5243 91.1004 60.4671C86.3033 57.4098 82.5645 53.0644 80.3567 47.9804C78.1489 42.8963 77.5712 37.3019 78.6967 31.9047C79.8223 26.5075 82.6005 21.5499 86.68 17.6587C90.7595 13.7676 95.9572 11.1177 101.616 10.0441C107.274 8.97052 113.139 9.52152 118.469 11.6274C123.8 13.7333 128.355 17.2995 131.561 21.875C134.766 26.4505 136.477 31.8299 136.477 37.3328C136.468 44.7095 133.392 51.7817 127.923 56.9978C122.455 62.2139 115.04 65.1479 107.306 65.1562ZM107.306 10.5444C101.752 10.5444 96.3217 12.1155 91.7032 15.059C87.0846 18.0026 83.4848 22.1864 81.3591 27.0813C79.2334 31.9763 78.6772 37.3625 79.7609 42.559C80.8446 47.7554 83.5194 52.5287 87.4472 56.2751C91.375 60.0215 96.3793 62.5729 101.827 63.6065C107.275 64.6402 112.922 64.1097 118.054 62.0821C123.186 60.0546 127.572 56.621 130.658 52.2157C133.745 47.8103 135.392 42.6311 135.392 37.3328C135.383 30.2306 132.421 23.4216 127.156 18.3996C121.891 13.3776 114.752 10.5526 107.306 10.5444Z" fill="#1B1C1D"/>
<path d="M95.3878 32.3601C95.3878 29.9229 97.0641 27.9514 99.1364 27.9514C101.209 27.9514 102.885 29.9229 102.885 32.3601" fill="#FFFA83"/>
<path d="M102.885 33.1363C102.669 33.1363 102.462 33.0545 102.31 32.9089C102.157 32.7634 102.071 32.5659 102.071 32.3601C102.071 30.3576 100.753 28.7379 99.1365 28.7379C97.5198 28.7379 96.2015 30.3679 96.2015 32.3601C96.2015 32.5659 96.1158 32.7634 95.9632 32.9089C95.8106 33.0545 95.6036 33.1363 95.3878 33.1363C95.172 33.1363 94.965 33.0545 94.8124 32.9089C94.6598 32.7634 94.574 32.5659 94.574 32.3601C94.574 29.4986 96.6193 27.1856 99.1365 27.1856C101.654 27.1856 103.699 29.5089 103.699 32.3601C103.699 32.5659 103.613 32.7634 103.461 32.9089C103.308 33.0545 103.101 33.1363 102.885 33.1363Z" fill="#1B1C1D"/>
<path d="M111.755 32.3601C111.755 29.9229 113.431 27.9514 115.504 27.9514C117.576 27.9514 119.252 29.9229 119.252 32.3601" fill="#FFFA83"/>
<path d="M119.225 33.1363C119.009 33.1363 118.802 33.0545 118.65 32.9089C118.497 32.7634 118.411 32.5659 118.411 32.3601C118.411 30.3576 117.093 28.7379 115.477 28.7379C113.86 28.7379 112.542 30.3679 112.542 32.3601C112.542 32.5659 112.456 32.7634 112.303 32.9089C112.151 33.0545 111.944 33.1363 111.728 33.1363C111.512 33.1363 111.305 33.0545 111.152 32.9089C111 32.7634 110.914 32.5659 110.914 32.3601C110.914 29.4986 112.959 27.1856 115.477 27.1856C117.994 27.1856 120.039 29.5089 120.039 32.3601C120.039 32.5659 119.953 32.7634 119.801 32.9089C119.648 33.0545 119.441 33.1363 119.225 33.1363Z" fill="#1B1C1D"/>
<path d="M88.14 40.0236C89.0425 44.2367 91.4431 48.0233 94.9355 50.7427C98.428 53.462 102.798 54.9473 107.306 54.9473C111.815 54.9473 116.185 53.462 119.677 50.7427C123.17 48.0233 125.57 44.2367 126.473 40.0236" fill="#FFFA83"/>
<path d="M107.306 55.723C102.611 55.7148 98.0623 54.1635 94.426 51.3303C90.7896 48.4971 88.288 44.5552 87.3425 40.1684C87.3211 40.0685 87.3206 39.9656 87.3409 39.8655C87.3612 39.7654 87.402 39.6701 87.461 39.5851C87.5199 39.5 87.5958 39.4269 87.6844 39.3698C87.773 39.3128 87.8725 39.2729 87.9772 39.2525C88.0819 39.2321 88.1899 39.2316 88.2948 39.251C88.3997 39.2704 88.4996 39.3093 88.5888 39.3656C88.6779 39.4218 88.7546 39.4942 88.8145 39.5787C88.8743 39.6632 88.9161 39.7581 88.9374 39.8579C89.8026 43.8957 92.1034 47.5245 95.4505 50.1305C98.7977 52.7366 102.986 54.16 107.306 54.16C111.627 54.16 115.815 52.7366 119.162 50.1305C122.51 47.5245 124.81 43.8957 125.676 39.8579C125.719 39.6562 125.844 39.4791 126.024 39.3656C126.204 39.252 126.424 39.2114 126.636 39.2525C126.847 39.2937 127.033 39.4133 127.152 39.5851C127.271 39.7568 127.314 39.9667 127.27 40.1684C126.323 44.5543 123.821 48.4951 120.185 51.328C116.549 54.1608 112.001 55.7129 107.306 55.723Z" fill="#1B1C1D"/>
<path d="M108.5 96.3895C108.356 96.3895 108.218 96.335 108.116 96.2379C108.015 96.1409 107.958 96.0093 107.958 95.872V79.0135C107.958 78.8762 108.015 78.7446 108.116 78.6476C108.218 78.5505 108.356 78.496 108.5 78.496C108.644 78.496 108.782 78.5505 108.884 78.6476C108.985 78.7446 109.043 78.8762 109.043 79.0135V95.872C109.043 96.0093 108.985 96.1409 108.884 96.2379C108.782 96.335 108.644 96.3895 108.5 96.3895Z" fill="#0A0A0A"/>
</svg>
